<?xml version="1.0" standalone="no"?>
<!DOCTYPE svg PUBLIC "-//W3C//DTD SVG 20010904//EN"
 "http://www.w3.org/TR/2001/REC-SVG-20010904/DTD/svg10.dtd">
<svg version="1.0" xmlns="http://www.w3.org/2000/svg"
 width="224.000000pt" height="224.000000pt" viewBox="0 0 224.000000 224.000000"
 preserveAspectRatio="xMidYMid meet">

<g transform="translate(0.000000,224.000000) scale(0.100000,-0.100000)"
fill="#000000" stroke="none">
<path d="M970 2231 c-400 -59 -738 -322 -887 -692 -61 -151 -77 -237 -77 -419
0 -140 4 -179 23 -254 111 -428 409 -726 837 -837 75 -19 114 -23 254 -23 140
0 179 4 254 23 428 111 726 409 837 837 19 75 23 114 23 254 0 140 -4 179 -23
254 -110 427 -412 729 -836 836 -90 23 -313 34 -405 21z m14 -761 c124 -18
185 -94 172 -214 -8 -76 -41 -121 -115 -157 -50 -25 -52 -27 -28 -33 14 -3 40
-23 57 -44 34 -40 139 -229 140 -249 0 -10 -30 -13 -119 -13 l-118 0 -64 121
c-75 143 -97 169 -139 169 l-30 0 0 -145 0 -145 -110 0 -110 0 0 360 0 360
198 0 c108 0 228 -5 266 -10z m745 -5 c113 -27 181 -83 197 -163 l7 -32 -85 0
c-47 0 -99 -3 -117 -6 -26 -5 -32 -3 -40 17 -15 42 -48 62 -104 67 -46 4 -57
1 -82 -20 -24 -21 -26 -27 -16 -46 11 -21 39 -32 141 -52 101 -21 195 -52 235
-77 158 -99 104 -309 -93 -369 -80 -25 -285 -25 -366 0 -79 23 -147 87 -170
157 -9 29 -15 54 -13 55 2 2 55 7 119 10 l115 7 11 -30 c32 -93 173 -121 231
-47 41 52 -15 101 -142 124 -194 34 -307 115 -307 218 0 43 40 112 80 138 87
58 267 80 399 49z"/>
<path d="M740 1266 l0 -76 74 0 c90 0 126 21 126 74 0 52 -27 69 -120 74 l-80
5 0 -77z"/>
</g>
</svg>
