<?xml version="1.0" encoding="UTF-8" standalone="no"?>
<svg
   xmlns:dc="http://purl.org/dc/elements/1.1/"
   xmlns:cc="http://creativecommons.org/ns#"
   xmlns:rdf="http://www.w3.org/1999/02/22-rdf-syntax-ns#"
   xmlns:svg="http://www.w3.org/2000/svg"
   xmlns="http://www.w3.org/2000/svg"
   xmlns:sodipodi="http://sodipodi.sourceforge.net/DTD/sodipodi-0.dtd"
   xmlns:inkscape="http://www.inkscape.org/namespaces/inkscape"
   version="1.1"
   id="svg833"
   width="501.55103"
   height="501.55103"
   viewBox="0 0 501.55103 501.55103"
   sodipodi:docname="free-icon-shopping-cart-481384.svg"
   inkscape:version="1.0.1 (3bc2e813f5, 2020-09-07)">
  <metadata
     id="metadata839">
    <rdf:RDF>
      <cc:Work
         rdf:about="">
        <dc:format>image/svg+xml</dc:format>
        <dc:type
           rdf:resource="http://purl.org/dc/dcmitype/StillImage" />
        <dc:title></dc:title>
      </cc:Work>
    </rdf:RDF>
  </metadata>
  <defs
     id="defs837" />
  <sodipodi:namedview
     pagecolor="#ffffff"
     bordercolor="#666666"
     borderopacity="1"
     objecttolerance="10"
     gridtolerance="10"
     guidetolerance="10"
     inkscape:pageopacity="0"
     inkscape:pageshadow="2"
     inkscape:window-width="1920"
     inkscape:window-height="1017"
     id="namedview835"
     showgrid="false"
     inkscape:zoom="1.3677571"
     inkscape:cx="250.77551"
     inkscape:cy="250.77551"
     inkscape:window-x="1432"
     inkscape:window-y="-8"
     inkscape:window-maximized="1"
     inkscape:current-layer="g841" />
  <g
     inkscape:groupmode="layer"
     inkscape:label="Image"
     id="g841">
    <path
       style="fill:#000000;stroke-width:0.979592"
       d="m 127.47929,502.28639 c -15.29751,-3.32771 -28.829067,-15.78433 -33.280727,-30.63697 -2.19024,-7.30757 -2.19024,-19.60451 0,-26.91209 6.219797,-20.7519 28.259487,-34.67747 49.644447,-31.36739 26.5619,4.1114 44.22011,30.11217 37.63097,55.40959 -4.60005,17.66079 -19.04826,31.17346 -36.3637,34.00911 -7.30266,1.19592 -10.20448,1.11325 -17.63099,-0.50225 z m 15.22386,-22.12896 c 9.44338,-2.02523 17.70144,-12.2719 17.70144,-21.96405 0,-5.31774 -2.92377,-11.9994 -7.06115,-16.13679 -13.93799,-13.93797 -38.1225,-4.10091 -38.24132,15.55468 -0.0679,11.22071 6.73077,20.09299 17.3841,22.68653 4.2438,1.03315 4.77934,1.02579 10.21693,-0.14037 z m 262.10961,22.95169 c -19.40945,-4.04224 -31.88298,-14.92705 -37.32779,-32.57344 -1.70276,-5.5186 -1.88693,-18.03541 -0.34938,-23.74545 8.97564,-33.33299 50.53262,-45.10372 75.26084,-21.31712 18.54948,17.84315 18.5622,47.16946 0.0283,65.35287 -9.04479,8.87375 -26.54326,14.58832 -37.61199,12.28314 z m 12.47935,-23.23886 c 13.78945,-4.15001 20.25662,-18.97808 13.86836,-31.79765 -8.75489,-17.56877 -33.64557,-16.48922 -41.30433,1.79145 -0.97233,2.32083 -1.28748,5.49109 -0.9771,9.82908 0.72703,10.16109 6.18016,17.11374 15.77674,20.11503 5.3319,1.66754 7.2702,1.67706 12.63633,0.0621 z M 123.52972,389.13687 c -20.24872,-2.99344 -34.599157,-22.7916 -30.739657,-42.40906 0.65327,-3.3205 2.08304,-7.81137 3.17728,-9.97972 1.09423,-2.16836 10.530057,-14.62543 20.968487,-27.68237 10.43843,-13.05695 18.97897,-24.22396 18.97897,-24.8156 0,-1.26513 -69.884437,-241.035097 -71.506797,-245.336198 -1.45992,-3.87044 -6.41673,-8.961085 -11.26872,-11.57296 -3.55107,-1.911582 -5.84666,-2.156051 -24.48979,-2.608037 C 15.159333,24.405868 7.3633132,23.824344 6.0016732,23.04357 3.7878432,21.774144 0.73112323,16.215274 0.73112323,13.458678 c 0,-3.376726 3.15195997,-8.2044587 6.34618997,-9.7202227 4.5011398,-2.13593 37.3504298,-2.184297 46.3256398,-0.06821 11.95213,2.817958 21.80501,9.6690707 28.16508,19.5843507 2.91295,4.541247 7.19216,15.630968 8.69394,22.530613 l 0.63965,2.93877 190.946547,-0.24979 c 189.64632,-0.2481 190.98264,-0.23629 196.24865,1.73397 19.4422,7.27426 29.19445,30.2955 21.44503,50.623291 -0.98732,2.58988 -19.9779,43.33362 -42.2013,90.54166 -35.45082,75.30641 -40.99811,86.49694 -45.23291,91.24828 -6.11997,6.86645 -12.38502,11.01714 -20.3361,13.47298 -6.0916,1.88151 -9.50056,1.93574 -121.67312,1.93574 H 154.69248 l -19.14108,23.97804 c -12.9375,16.20679 -19.46831,25.19323 -20.15073,27.72749 -1.62492,6.03455 0.89513,12.13255 6.29908,15.24234 1.46085,0.84068 44.00703,1.26038 164.5824,1.62356 176.92192,0.5329 164.92648,0.10914 168.37568,5.94817 2.02196,3.42289 2.02196,8.19097 0,11.61386 -3.45421,5.84753 8.44263,5.44686 -165.9267,5.58824 -88.0898,0.0714 -162.43044,-0.20529 -165.20141,-0.61494 z M 386.47688,273.98228 c 8.57747,-3.57328 8.23852,-2.94875 51.75912,-95.36812 44.09606,-93.64137 43.68527,-92.61078 39.8555,-99.9931 -0.97269,-1.87497 -3.26638,-4.40967 -5.09707,-5.63265 L 469.66588,70.7648 H 283.62229 c -176.73494,0 -186.016857,0.0858 -185.509117,1.71429 0.29397,0.94285 13.562967,46.45714 29.486667,101.14285 15.9237,54.68572 29.14396,99.9796 29.37834,100.65307 0.33759,0.97003 23.84954,1.22449 113.14142,1.22449 99.54991,0 113.14066,-0.17722 116.35728,-1.51722 z"
       id="path845" />
  </g>
</svg>
