<svg xmlns="http://www.w3.org/2000/svg" version="1.1" xmlns:xlink="http://www.w3.org/1999/xlink" xmlns:svgjs="http://svgjs.dev/svgjs" width="2000" height="742" viewBox="0 0 2000 742"><g transform="matrix(1,0,0,1,-1.2121212121212466,-2.393600620640484)"><svg viewBox="0 0 396 147" data-background-color="#a1b0f6" preserveAspectRatio="xMidYMid meet" height="742" width="2000" xmlns="http://www.w3.org/2000/svg" xmlns:xlink="http://www.w3.org/1999/xlink"><g id="tight-bounds" transform="matrix(1,0,0,1,0.2400000000000091,0.4742038965419795)"><svg viewBox="0 0 395.52 146.05159220691604" height="146.05159220691604" width="395.52"><g><svg viewBox="0 0 688.5128035937764 254.2435053087548" height="146.05159220691604" width="395.52"><g><rect width="7.787771390773548" height="254.2435053087548" x="264.8181961015014" y="0" fill="#000000" opacity="1" stroke-width="0" stroke="transparent" fill-opacity="1" class="rect-yte-0" data-fill-palette-color="primary" rx="1%" id="yte-0" data-palette-color="#223fc0"></rect></g><g transform="matrix(1,0,0,1,292.99280359377644,0.632446530618779)"><svg viewBox="0 0 395.52 252.97861224751725" height="252.97861224751725" width="395.52"><g id="textblocktransform"><svg viewBox="0 0 395.52 252.97861224751725" height="252.97861224751725" width="395.52" id="textblock"><g><svg viewBox="0 0 395.52 186.31371919770774" height="186.31371919770774" width="395.52"><g transform="matrix(1,0,0,1,0,0)"><svg width="395.52" viewBox="2.4000000000000004 -37.6 176.79999999999998 79.2" height="186.31371919770774" data-palette-color="#223fc0"><svg></svg><svg></svg><g class="wordmark-text-0" data-fill-palette-color="primary" id="text-0"><path d="M15.75 0.5c-4.233 0-7.517-1.467-9.85-4.4-2.333-2.933-3.5-7.017-3.5-12.25v0c0-5.3 1.267-9.427 3.8-12.38 2.533-2.947 6.117-4.42 10.75-4.42v0c1.533 0 3.01 0.2 4.43 0.6 1.413 0.4 2.62 0.85 3.62 1.35 1 0.5 1.5 0.767 1.5 0.8v0l-0.45 2.4c0-0.033-0.483-0.283-1.45-0.75-0.967-0.467-2.09-0.9-3.37-1.3-1.287-0.4-2.58-0.6-3.88-0.6v0c-3.7 0-6.44 1.19-8.22 3.57-1.787 2.387-2.68 5.963-2.68 10.73v0c0 4.667 0.867 8.19 2.6 10.57 1.733 2.387 4.15 3.58 7.25 3.58v0c2.5 0 4.317-0.6 5.45-1.8 1.133-1.2 1.867-2.4 2.2-3.6v0-7.35h-6.65v-2.15h9.85v16.9h-1.85l-0.95-3.55c-0.8 1.167-1.9 2.133-3.3 2.9-1.4 0.767-3.167 1.15-5.3 1.15zM39.9 0.5c-2.2 0-3.967-0.543-5.3-1.63-1.333-1.08-2-2.587-2-4.52v0c0-4.9 4.717-7.85 14.15-8.85v0-2.65c0-2.367-0.383-3.983-1.15-4.85-0.767-0.867-2.117-1.3-4.05-1.3v0c-0.867 0-1.75 0.157-2.65 0.47-0.9 0.32-1.657 0.653-2.27 1-0.62 0.353-1.013 0.58-1.18 0.68v0l-0.4-2.05c0.167-0.133 0.593-0.383 1.28-0.75 0.68-0.367 1.543-0.717 2.59-1.05 1.053-0.333 2.113-0.5 3.18-0.5v0c2.867 0 4.967 0.6 6.3 1.8 1.333 1.2 2 3.317 2 6.35v0 12.25c0 1.333 0.127 2.233 0.38 2.7 0.247 0.467 0.553 0.7 0.92 0.7v0c0.3 0 0.667-0.06 1.1-0.18 0.433-0.113 0.717-0.203 0.85-0.27v0l0.15 1.7c-0.267 0.1-0.833 0.283-1.7 0.55-0.867 0.267-1.6 0.4-2.2 0.4v0c-0.867 0-1.533-0.277-2-0.83-0.467-0.547-0.75-1.52-0.85-2.92v0h-0.05c0 0.133-0.267 0.517-0.8 1.15-0.533 0.633-1.323 1.223-2.37 1.77-1.053 0.553-2.363 0.83-3.93 0.83zM41-1.7c1.2 0 2.233-0.267 3.1-0.8 0.867-0.533 1.527-1.117 1.98-1.75 0.447-0.633 0.67-1 0.67-1.1v0-7.3c-3.033 0.333-5.527 0.983-7.48 1.95-1.947 0.967-2.92 2.5-2.92 4.6v0c0 1.433 0.417 2.523 1.25 3.27 0.833 0.753 1.967 1.13 3.4 1.13zM62.2 0h-3.6v-37.4l3.6-0.2zM74.9 0.5c-2.2 0-3.967-0.543-5.3-1.63-1.333-1.08-2-2.587-2-4.52v0c0-4.9 4.717-7.85 14.15-8.85v0-2.65c0-2.367-0.383-3.983-1.15-4.85-0.767-0.867-2.117-1.3-4.05-1.3v0c-0.867 0-1.75 0.157-2.65 0.47-0.9 0.32-1.657 0.653-2.27 1-0.62 0.353-1.013 0.58-1.18 0.68v0l-0.4-2.05c0.167-0.133 0.593-0.383 1.28-0.75 0.68-0.367 1.543-0.717 2.59-1.05 1.053-0.333 2.113-0.5 3.18-0.5v0c2.867 0 4.967 0.6 6.3 1.8 1.333 1.2 2 3.317 2 6.35v0 12.25c0 1.333 0.127 2.233 0.38 2.7 0.247 0.467 0.553 0.7 0.92 0.7v0c0.3 0 0.667-0.06 1.1-0.18 0.433-0.113 0.717-0.203 0.85-0.27v0l0.15 1.7c-0.267 0.1-0.833 0.283-1.7 0.55-0.867 0.267-1.6 0.4-2.2 0.4v0c-0.867 0-1.533-0.277-2-0.83-0.467-0.547-0.75-1.52-0.85-2.92v0h-0.05c0 0.133-0.267 0.517-0.8 1.15-0.533 0.633-1.323 1.223-2.37 1.77-1.053 0.553-2.363 0.83-3.93 0.83zM76-1.7c1.2 0 2.233-0.267 3.1-0.8 0.867-0.533 1.527-1.117 1.98-1.75 0.447-0.633 0.67-1 0.67-1.1v0-7.3c-3.033 0.333-5.523 0.983-7.47 1.95-1.953 0.967-2.93 2.5-2.93 4.6v0c0 1.433 0.417 2.523 1.25 3.27 0.833 0.753 1.967 1.13 3.4 1.13zM102.5 0.5c-3.467 0-6.133-1.067-8-3.2-1.867-2.133-2.8-5.317-2.8-9.55v0c0-4.267 0.923-7.543 2.77-9.83 1.853-2.28 4.563-3.42 8.13-3.42v0c1.167 0 2.267 0.157 3.3 0.47 1.033 0.32 1.907 0.67 2.62 1.05 0.72 0.387 1.08 0.597 1.08 0.63v0l-0.45 2.05c-0.133-0.1-0.493-0.31-1.08-0.63-0.58-0.313-1.33-0.62-2.25-0.92-0.913-0.3-1.853-0.45-2.82-0.45v0c-2.567 0-4.45 0.85-5.65 2.55-1.2 1.7-1.8 4.517-1.8 8.45v0c0 3.8 0.633 6.517 1.9 8.15 1.267 1.633 3.05 2.45 5.35 2.45v0c1.3 0 2.41-0.233 3.33-0.7 0.913-0.467 1.62-0.96 2.12-1.48 0.5-0.513 0.75-0.82 0.75-0.92v0l1.6 1.05c0 0.133-0.3 0.557-0.9 1.27-0.6 0.72-1.5 1.397-2.7 2.03-1.2 0.633-2.7 0.95-4.5 0.95zM120.9 0.5c-1.8 0-3.133-0.56-4-1.68-0.867-1.113-1.3-2.953-1.3-5.52v0-15.85h-2.6v-2.1l2.6-0.3 1.35-7.95h2.3v7.9h6.4v2.45h-6.4v14.95c0 2.167 0.21 3.657 0.63 4.47 0.413 0.82 1.137 1.23 2.17 1.23v0c0.833 0 1.583-0.083 2.25-0.25 0.667-0.167 1-0.267 1-0.3v0l0.25 2c-0.067 0.067-0.277 0.173-0.63 0.32-0.347 0.153-0.86 0.297-1.54 0.43-0.687 0.133-1.513 0.2-2.48 0.2zM132.85-30.05c-0.6 0-1.083-0.183-1.45-0.55v0c-0.433-0.433-0.65-0.967-0.65-1.6v0c0-0.633 0.217-1.167 0.65-1.6v0c0.367-0.367 0.85-0.55 1.45-0.55v0c0.633 0 1.133 0.167 1.5 0.5v0c0.4 0.433 0.6 0.983 0.6 1.65v0c0 0.6-0.2 1.133-0.6 1.6v0c-0.467 0.367-0.967 0.55-1.5 0.55zM134.65 0h-3.65v-25h3.65zM151.05 0.5c-3.467 0-6.133-1.067-8-3.2-1.867-2.133-2.8-5.317-2.8-9.55v0c0-4.267 0.927-7.543 2.78-9.83 1.847-2.28 4.553-3.42 8.12-3.42v0c1.167 0 2.267 0.157 3.3 0.47 1.033 0.32 1.91 0.67 2.63 1.05 0.713 0.387 1.07 0.597 1.07 0.63v0l-0.45 2.05c-0.133-0.1-0.49-0.31-1.07-0.63-0.587-0.313-1.337-0.62-2.25-0.92-0.92-0.3-1.863-0.45-2.83-0.45v0c-2.567 0-4.45 0.85-5.65 2.55-1.2 1.7-1.8 4.517-1.8 8.45v0c0 3.8 0.633 6.517 1.9 8.15 1.267 1.633 3.05 2.45 5.35 2.45v0c1.3 0 2.41-0.233 3.33-0.7 0.913-0.467 1.62-0.96 2.12-1.48 0.5-0.513 0.75-0.82 0.75-0.92v0l1.6 1.05c0 0.133-0.3 0.557-0.9 1.27-0.6 0.72-1.5 1.397-2.7 2.03-1.2 0.633-2.7 0.95-4.5 0.95z" fill="#000000" fill-rule="nonzero" stroke="none" stroke-width="1" stroke-linecap="butt" stroke-linejoin="miter" stroke-miterlimit="10" stroke-dasharray="" stroke-dashoffset="0" font-family="none" font-weight="none" font-size="none" text-anchor="none" style="mix-blend-mode: normal" data-fill-palette-color="primary" opacity="1"></path><path transform="translate(0,41.1)" d="M23.3 0h-18.6v-32.5h17.5v2.4h-13.7v12.5h12.55v2.3h-12.55v12.9h14.8zM28.95 0h-3l8.3-12.45-7.9-12.55h4.3l6.15 10.45 6.45-10.45h2.95l-7.75 11.95 8.4 13.05h-4.25l-6.7-10.8zM60.15 0.5c-3.467 0-6.133-1.067-8-3.2-1.867-2.133-2.8-5.317-2.8-9.55v0c0-4.267 0.927-7.543 2.78-9.83 1.847-2.28 4.553-3.42 8.12-3.42v0c1.167 0 2.267 0.157 3.3 0.47 1.033 0.32 1.907 0.67 2.62 1.05 0.72 0.387 1.08 0.597 1.08 0.63v0l-0.45 2.05c-0.133-0.1-0.493-0.31-1.08-0.63-0.58-0.313-1.327-0.62-2.24-0.92-0.92-0.3-1.863-0.45-2.83-0.45v0c-2.567 0-4.45 0.85-5.65 2.55-1.2 1.7-1.8 4.517-1.8 8.45v0c0 3.8 0.633 6.517 1.9 8.15 1.267 1.633 3.05 2.45 5.35 2.45v0c1.3 0 2.41-0.233 3.33-0.7 0.913-0.467 1.62-0.96 2.12-1.48 0.5-0.513 0.75-0.82 0.75-0.92v0l1.6 1.05c0 0.133-0.3 0.557-0.9 1.27-0.6 0.72-1.5 1.397-2.7 2.03-1.2 0.633-2.7 0.95-4.5 0.95zM76 0h-3.6v-37.4l3.6-0.2zM90.85 0.5c-2.433 0-4.317-0.677-5.65-2.03-1.333-1.347-2-3.353-2-6.02v0-17.45h3.65v16.7c0 4.1 1.733 6.15 5.2 6.15v0c1.2 0 2.233-0.193 3.1-0.58 0.867-0.38 1.56-0.787 2.08-1.22 0.513-0.433 0.77-0.683 0.77-0.75v0-20.3h3.65v25h-3.05l-0.5-2.4c-0.433 0.6-1.233 1.233-2.4 1.9-1.167 0.667-2.783 1-4.85 1zM115.35 0.5c-1.767 0-3.257-0.277-4.47-0.83-1.22-0.547-2.137-1.137-2.75-1.77-0.62-0.633-0.93-1-0.93-1.1v0l1.25-1.75c0 0.067 0.267 0.383 0.8 0.95 0.533 0.567 1.267 1.09 2.2 1.57 0.933 0.487 2.033 0.73 3.3 0.73v0c1.867 0 3.277-0.467 4.23-1.4 0.947-0.933 1.42-2.067 1.42-3.4v0c0-0.967-0.24-1.767-0.72-2.4-0.487-0.633-1.087-1.127-1.8-1.48-0.72-0.347-1.713-0.737-2.98-1.17v0c-1.467-0.533-2.633-1.027-3.5-1.48-0.867-0.447-1.607-1.12-2.22-2.02-0.62-0.9-0.93-2.067-0.93-3.5v0c0-2.133 0.777-3.827 2.33-5.08 1.547-1.247 3.537-1.87 5.97-1.87v0c1.067 0 2.093 0.14 3.08 0.42 0.98 0.287 1.77 0.587 2.37 0.9 0.6 0.32 0.983 0.53 1.15 0.63v0l-0.6 2.15c-0.133-0.1-0.467-0.31-1-0.63-0.533-0.313-1.223-0.62-2.07-0.92-0.853-0.3-1.73-0.45-2.63-0.45v0c-1.533 0-2.773 0.383-3.72 1.15-0.953 0.767-1.43 1.733-1.43 2.9v0c0 0.967 0.25 1.773 0.75 2.42 0.5 0.653 1.127 1.163 1.88 1.53 0.747 0.367 1.753 0.783 3.02 1.25v0c1.467 0.5 2.66 0.99 3.58 1.47 0.913 0.487 1.687 1.18 2.32 2.08 0.633 0.9 0.95 2.067 0.95 3.5v0c0 2.167-0.75 3.973-2.25 5.42-1.5 1.453-3.7 2.18-6.6 2.18zM131.35-30.05c-0.6 0-1.083-0.183-1.45-0.55v0c-0.433-0.433-0.65-0.967-0.65-1.6v0c0-0.633 0.217-1.167 0.65-1.6v0c0.367-0.367 0.85-0.55 1.45-0.55v0c0.633 0 1.133 0.167 1.5 0.5v0c0.4 0.433 0.6 0.983 0.6 1.65v0c0 0.6-0.2 1.133-0.6 1.6v0c-0.467 0.367-0.967 0.55-1.5 0.55zM133.15 0h-3.65v-25h3.65zM149.4 0h-3.3l-8.55-25h4.3l6.5 21.05 6.9-21.05h2.75zM170.7 0.5c-3.333 0-5.95-1.043-7.85-3.13-1.9-2.08-2.85-5.203-2.85-9.37v0c0-4.2 0.917-7.5 2.75-9.9 1.833-2.4 4.333-3.6 7.5-3.6v0c2.867 0 5.077 0.99 6.63 2.97 1.547 1.987 2.32 4.797 2.32 8.43v0c0 0.633-0.033 1.15-0.1 1.55-0.067 0.4-0.117 0.65-0.15 0.75v0h-15.15c0 6.733 2.433 10.1 7.3 10.1v0c1.333 0 2.477-0.243 3.43-0.73 0.947-0.48 1.687-0.997 2.22-1.55 0.533-0.547 0.8-0.87 0.8-0.97v0l1.45 1.2c0 0.133-0.317 0.557-0.95 1.27-0.633 0.72-1.567 1.397-2.8 2.03-1.233 0.633-2.75 0.95-4.55 0.95zM163.85-13.9h11.95l0.05-0.95c0-5.667-1.867-8.5-5.6-8.5v0c-1.967 0-3.483 0.773-4.55 2.32-1.067 1.553-1.683 3.93-1.85 7.13z" fill="#000000" fill-rule="nonzero" stroke="none" stroke-width="1" stroke-linecap="butt" stroke-linejoin="miter" stroke-miterlimit="10" stroke-dasharray="" stroke-dashoffset="0" font-family="none" font-weight="none" font-size="none" text-anchor="none" style="mix-blend-mode: normal" data-fill-palette-color="primary" opacity="1"></path></g></svg></g></svg></g><g transform="matrix(1,0,0,1,0,206.70055529920919)"><svg viewBox="0 0 232.209792 46.27805694830807" height="46.27805694830807" width="232.209792"><g transform="matrix(1,0,0,1,0,0)"><svg width="232.209792" viewBox="3.6 -37.6 240.82 48" height="46.27805694830807" data-palette-color="#223fc0"><path d="M13.7 0.3L13.7 0.3Q12 0.3 10.43-0.63 8.85-1.55 7.6-3.45L7.6-3.45Q7.45-2.15 7.15-1L7.15-1Q6.95-0.3 6.53-0.1 6.1 0.1 5.55 0.1L5.55 0.1 5.25 0.1Q3.6 0.1 3.6-1L3.6-1 3.6-36.5Q3.6-37.05 4.03-37.33 4.45-37.6 5.55-37.6L5.55-37.6 5.95-37.6Q7.05-37.6 7.48-37.33 7.9-37.05 7.9-36.5L7.9-36.5 7.9-23.9Q8.9-25 10.15-25.73 11.4-26.45 13.3-26.45L13.3-26.45Q16.95-26.45 19.23-23.03 21.5-19.6 21.5-13.25L21.5-13.25Q21.5-9.2 20.53-6.15 19.55-3.1 17.8-1.4 16.05 0.3 13.7 0.3ZM12.65-3.35L12.65-3.35Q14.85-3.35 15.98-5.98 17.1-8.6 17.1-13.3L17.1-13.3Q17.1-17.9 15.93-20.33 14.75-22.75 12.25-22.75L12.25-22.75Q11-22.75 9.88-22.2 8.75-21.65 7.9-20.5L7.9-20.5 7.9-6.8Q10-3.35 12.65-3.35ZM33.8 0.35L33.8 0.35Q30.7 0.35 28.92-1.45 27.15-3.25 27.15-6.4L27.15-6.4 27.15-25.1Q27.15-26.2 29.05-26.2L29.05-26.2 29.55-26.2Q31.45-26.2 31.45-25.1L31.45-25.1 31.45-7.05Q31.45-5.2 32.22-4.25 33-3.3 34.8-3.3L34.8-3.3Q36.55-3.3 37.85-4.28 39.15-5.25 39.95-6.8L39.95-6.8 39.95-25.1Q39.95-26.2 41.85-26.2L41.85-26.2 42.35-26.2Q44.25-26.2 44.25-25.1L44.25-25.1 44.25-7.45Q44.25-4.4 44.5-2.98 44.75-1.55 44.75-1.2L44.75-1.2Q44.75-0.6 43.7-0.3 42.65 0 41.85 0L41.85 0Q41.2 0 40.92-0.75 40.65-1.5 40.25-3.4L40.25-3.4Q39.1-1.65 37.4-0.65 35.7 0.35 33.8 0.35ZM56 10.4L55.4 10.4Q53.6 10.4 53.6 9.55L53.6 9.55Q53.6 9.4 53.65 9.18 53.7 8.95 53.75 8.85L53.75 8.85 56.55 0.1 49.1-24.7Q49.05-24.9 49.02-25.08 49-25.25 49-25.4L49-25.4Q49-26.25 50.95-26.25L50.95-26.25 51.6-26.25Q52.3-26.25 52.8-26.08 53.3-25.9 53.4-25.45L53.4-25.45 58.35-5.9 58.55-5.9 63-25.45Q63.1-25.9 63.62-26.08 64.15-26.25 64.84-26.25L64.84-26.25 65.45-26.25Q67.25-26.25 67.25-25.4L67.25-25.4Q67.25-25.25 67.25-25.1 67.25-24.95 67.15-24.7L67.15-24.7 57.85 9.6Q57.75 10.05 57.22 10.23 56.7 10.4 56 10.4L56 10.4ZM84.89 0.3L84.89 0.3Q83.84 0.3 82.54-0.15 81.24-0.6 80.32-1.93 79.39-3.25 79.39-5.8L79.39-5.8 79.39-22.55 77.39-22.55Q76.39-22.55 76.39-24.05L76.39-24.05 76.39-24.65Q76.39-26.15 77.39-26.15L77.39-26.15 79.39-26.15 79.99-31.4Q80.14-32.5 81.54-32.5L81.54-32.5 81.94-32.5Q82.94-32.5 83.32-32.23 83.69-31.95 83.69-31.4L83.69-31.4 83.69-26.15 87.04-26.15Q88.04-26.15 88.04-24.65L88.04-24.65 88.04-24.05Q88.04-22.55 87.04-22.55L87.04-22.55 83.69-22.55 83.69-6.3Q83.69-4.55 84.07-3.93 84.44-3.3 85.54-3.3L85.54-3.3Q86.44-3.3 86.87-3.43 87.29-3.55 87.54-3.55L87.54-3.55Q87.89-3.55 88.07-3.05 88.24-2.55 88.29-1.98 88.34-1.4 88.34-1.15L88.34-1.15Q88.34-0.65 87.74-0.33 87.14 0 86.34 0.15 85.54 0.3 84.89 0.3ZM95.64 0.1L95.24 0.1Q94.14 0.1 93.71-0.2 93.29-0.5 93.29-1L93.29-1 93.29-36.5Q93.29-37.6 95.19-37.6L95.19-37.6 95.69-37.6Q97.59-37.6 97.59-36.5L97.59-36.5 97.59-23.1Q98.59-24.5 100.24-25.48 101.89-26.45 103.89-26.45L103.89-26.45Q105.64-26.45 107.14-25.75 108.64-25.05 109.56-23.55 110.49-22.05 110.49-19.6L110.49-19.6 110.49-1Q110.49-0.5 110.06-0.2 109.64 0.1 108.54 0.1L108.54 0.1 108.14 0.1Q107.04 0.1 106.61-0.2 106.19-0.5 106.19-1L106.19-1 106.19-18.75Q106.19-20.65 105.26-21.73 104.34-22.8 102.44-22.8L102.44-22.8Q101.14-22.8 100.09-22.18 99.04-21.55 98.41-20.73 97.79-19.9 97.59-19.3L97.59-19.3 97.59-1Q97.59-0.5 97.16-0.2 96.74 0.1 95.64 0.1L95.64 0.1ZM126.24 0.3L126.24 0.3Q121.24 0.3 118.69-2.95 116.14-6.2 116.14-12.9L116.14-12.9Q116.14-19.55 118.64-23 121.14-26.45 125.99-26.45L125.99-26.45Q130.34-26.45 132.54-23.1 134.74-19.75 134.74-13.35L134.74-13.35Q134.74-11.35 132.99-11.35L132.99-11.35 120.54-11.35Q120.69-7.2 122.09-5.25 123.49-3.3 126.54-3.3L126.54-3.3Q128.29-3.3 129.64-3.8 130.99-4.3 131.86-4.78 132.74-5.25 132.99-5.25L132.99-5.25Q133.49-5.25 133.81-4.38 134.14-3.5 134.14-2.9L134.14-2.9Q134.14-2.45 133.09-1.68 132.04-0.9 130.26-0.3 128.49 0.3 126.24 0.3ZM120.59-14.95L120.59-14.95 130.49-14.95Q130.49-22.85 125.84-22.85L125.84-22.85Q120.74-22.85 120.59-14.95ZM153.48 0.1L151.38 0.1Q150.73 0.1 150.23-0.1 149.73-0.3 149.58-0.95L149.58-0.95 144.43-24.4Q144.28-25.25 144.28-25.4L144.28-25.4Q144.28-26.25 146.23-26.25L146.23-26.25 146.88-26.25Q147.58-26.25 148.11-26.08 148.63-25.9 148.68-25.45L148.68-25.45 152.43-4.4 152.73-4.4 156.23-25.4Q156.33-25.9 156.81-26.08 157.28-26.25 157.98-26.25L157.98-26.25 158.93-26.25Q159.68-26.25 160.18-26.08 160.68-25.9 160.73-25.4L160.73-25.4 164.43-4.4 164.73-4.4 168.28-25.45Q168.38-25.9 168.91-26.08 169.43-26.25 170.13-26.25L170.13-26.25 170.73-26.25Q172.53-26.25 172.53-25.4L172.53-25.4Q172.53-25.25 172.51-25.1 172.48-24.95 172.43-24.7L172.43-24.7 167.23-0.95Q167.08-0.3 166.61-0.1 166.13 0.1 165.48 0.1L165.48 0.1 163.63 0.1Q162.98 0.1 162.43-0.1 161.88-0.3 161.78-0.95L161.78-0.95 158.58-18.75 158.38-18.75 155.23-0.95Q155.13-0.3 154.63-0.1 154.13 0.1 153.48 0.1L153.48 0.1ZM184.68 0.3L184.68 0.3Q179.98 0.3 177.5-3.1 175.03-6.5 175.03-12.95L175.03-12.95Q175.03-19.45 177.5-22.95 179.98-26.45 184.68-26.45L184.68-26.45Q189.33-26.45 191.75-22.98 194.18-19.5 194.18-12.95L194.18-12.95Q194.18-6.45 191.78-3.08 189.38 0.3 184.68 0.3ZM184.58-3.3L184.58-3.3Q187.23-3.3 188.5-5.68 189.78-8.05 189.78-13.05L189.78-13.05Q189.78-18.05 188.5-20.45 187.23-22.85 184.58-22.85L184.58-22.85Q181.88-22.85 180.65-20.48 179.43-18.1 179.43-13.05L179.43-13.05Q179.43-8.05 180.65-5.68 181.88-3.3 184.58-3.3ZM202.13 0.1L201.93 0.1Q199.93 0.1 199.93-1L199.93-1 199.93-18.65Q199.93-21.75 199.68-23.18 199.43-24.6 199.43-25.1L199.43-25.1Q199.43-25.65 200.48-25.88 201.53-26.1 202.33-26.1L202.33-26.1Q203.03-26.1 203.3-25.38 203.58-24.65 203.93-22.75L203.93-22.75Q205.23-24.5 206.93-25.48 208.63-26.45 210.18-26.45L210.18-26.45Q211.03-26.45 211.33-26.05 211.63-25.65 211.63-24.85L211.63-24.85Q211.63-23.75 211.33-22.93 211.03-22.1 210.58-22.1L210.58-22.1Q210.23-22.1 209.75-22.23 209.28-22.35 208.33-22.35L208.33-22.35Q206.93-22.35 205.78-21.48 204.63-20.6 204.23-19.3L204.23-19.3 204.23-1Q204.23 0.1 202.13 0.1L202.13 0.1ZM220.17 0.3L220.17 0.3Q219.12 0.3 217.85-0.15 216.57-0.6 215.62-1.93 214.67-3.25 214.67-5.8L214.67-5.8 214.67-36.5Q214.67-37.05 215.1-37.33 215.52-37.6 216.62-37.6L216.62-37.6 217.02-37.6Q218.12-37.6 218.55-37.33 218.97-37.05 218.97-36.5L218.97-36.5 218.97-6.3Q218.97-4.55 219.35-3.93 219.72-3.3 220.82-3.3L220.82-3.3Q221.72-3.3 222.15-3.43 222.57-3.55 222.82-3.55L222.82-3.55Q223.17-3.55 223.35-3.05 223.52-2.55 223.57-1.98 223.62-1.4 223.62-1.15L223.62-1.15Q223.62-0.65 223.02-0.33 222.42 0 221.62 0.15 220.82 0.3 220.17 0.3ZM233.92 0.3L233.92 0.3Q231.52 0.3 229.75-1.38 227.97-3.05 227-6.03 226.02-9 226.02-12.9L226.02-12.9Q226.02-19.4 228.32-22.93 230.62-26.45 234.32-26.45L234.32-26.45Q236.22-26.45 237.45-25.73 238.67-25 239.62-23.9L239.62-23.9 239.62-36.5Q239.62-37.6 241.47-37.6L241.47-37.6 242.02-37.6Q243.92-37.6 243.92-36.5L243.92-36.5 243.92-7.45Q243.92-4.4 244.17-2.98 244.42-1.55 244.42-1.2L244.42-1.2Q244.42-0.6 243.37-0.3 242.32 0 241.52 0L241.52 0Q240.87 0 240.6-0.75 240.32-1.5 239.92-3.4L239.92-3.4Q238.77-1.65 237.2-0.68 235.62 0.3 233.92 0.3ZM234.97-3.35L234.97-3.35Q236.22-3.35 237.47-4.25 238.72-5.15 239.62-6.8L239.62-6.8 239.62-20.5Q237.92-22.75 235.42-22.75L235.42-22.75Q232.87-22.75 231.65-20.2 230.42-17.65 230.42-12.85L230.42-12.85Q230.42-8.35 231.55-5.85 232.67-3.35 234.97-3.35Z" opacity="1" transform="matrix(1,0,0,1,0,0)" fill="#000000" class="slogan-text-1" data-fill-palette-color="secondary" id="text-1"></path></svg></g></svg></g></svg></g></svg></g><g transform="matrix(1,0,0,1,0,4.906072654377411)"><svg viewBox="0 0 244.43135999999998 244.43135999999998" height="244.43135999999998" width="244.43135999999998"><g><svg xmlns="http://www.w3.org/2000/svg" xmlns:xlink="http://www.w3.org/1999/xlink" version="1.1" x="0" y="0" viewBox="11.026 11.026 77.949 77.949" enable-background="new 0 0 100 100" xml:space="preserve" height="244.43135999999998" width="244.43135999999998" class="icon-icon-0" data-fill-palette-color="accent" id="icon-0"><path d="M50 11.026C28.475 11.026 11.026 28.475 11.026 50 11.026 62.283 16.714 73.232 25.593 80.376L11.026 88.975H50C71.525 88.975 88.975 71.526 88.975 50 88.975 28.475 71.523 11.026 50 11.026M49.999 85.507H23.961L32.203 80.721C21.617 74.574 14.493 63.123 14.493 50 14.493 30.39 30.389 14.494 49.999 14.494S85.506 30.39 85.506 50 69.609 85.507 49.999 85.507M43.337 67.25C41.269 67.25 39.587 65.567 39.587 63.5S41.269 59.75 43.337 59.75 47.087 61.433 47.087 63.5 45.405 67.25 43.337 67.25M43.337 61.75C42.372 61.75 41.587 62.535 41.587 63.5S42.372 65.25 43.337 65.25 45.087 64.465 45.087 63.5 44.302 61.75 43.337 61.75M55.919 67.25C53.852 67.25 52.169 65.567 52.169 63.5S53.852 59.75 55.919 59.75 59.669 61.433 59.669 63.5 57.986 67.25 55.919 67.25M55.919 61.75C54.954 61.75 54.169 62.535 54.169 63.5S54.954 65.25 55.919 65.25 57.669 64.465 57.669 63.5 56.884 61.75 55.919 61.75M60.792 53.5H41.142L41.576 55.144C41.95 56.58 42.703 56.584 42.715 56.586L58.504 56.583C60.587 56.583 61.652 58.113 61.953 59.018A1.001 1.001 0 0 1 60.059 59.66C60.016 59.543 59.632 58.584 58.504 58.584H42.794C42.777 58.585 40.446 58.741 39.639 55.65A8541 8541 0 0 0 35.151 38.751H31.253A1 1 0 0 1 31.253 36.751H35.92A1 1 0 0 1 36.886 37.494S39.21 46.221 40.611 51.501H60.062L63.461 40.919H39.915A1 1 0 0 1 39.915 38.919H64.833A1 1 0 0 1 65.786 40.225L61.745 52.807A1 1 0 0 1 60.792 53.5" fill="#000000" data-fill-palette-color="accent"></path></svg></g></svg></g></svg></g><defs></defs></svg><rect width="395.52" height="146.05159220691604" fill="none" stroke="none" visibility="hidden"></rect></g></svg></g></svg>