<?xml version="1.0" encoding="UTF-8" standalone="no"?>
<svg
   xmlns:dc="http://purl.org/dc/elements/1.1/"
   xmlns:cc="http://creativecommons.org/ns#"
   xmlns:rdf="http://www.w3.org/1999/02/22-rdf-syntax-ns#"
   xmlns:svg="http://www.w3.org/2000/svg"
   xmlns="http://www.w3.org/2000/svg"
   xmlns:sodipodi="http://sodipodi.sourceforge.net/DTD/sodipodi-0.dtd"
   xmlns:inkscape="http://www.inkscape.org/namespaces/inkscape"
   width="200.0px"
   height="200.0px"
   viewBox="0 0 200.0 200.0"
   version="1.1"
   id="SVGRoot"
   sodipodi:docname="logo.svg"
   inkscape:version="1.0.1 (3bc2e813f5, 2020-09-07)">
  <defs
     id="defs2861" />
  <sodipodi:namedview
     id="base"
     pagecolor="#ffffff"
     bordercolor="#666666"
     borderopacity="1.0"
     inkscape:pageopacity="0.0"
     inkscape:pageshadow="2"
     inkscape:zoom="1.4"
     inkscape:cx="157.39817"
     inkscape:cy="192.36843"
     inkscape:document-units="px"
     inkscape:current-layer="layer1"
     inkscape:document-rotation="0"
     showgrid="true"
     inkscape:window-width="1609"
     inkscape:window-height="967"
     inkscape:window-x="26"
     inkscape:window-y="26"
     inkscape:window-maximized="0">
    <inkscape:grid
       type="xygrid"
       id="grid3431" />
  </sodipodi:namedview>
  <metadata
     id="metadata2864">
    <rdf:RDF>
      <cc:Work
         rdf:about="">
        <dc:format>image/svg+xml</dc:format>
        <dc:type
           rdf:resource="http://purl.org/dc/dcmitype/StillImage" />
        <dc:title></dc:title>
      </cc:Work>
    </rdf:RDF>
  </metadata>
  <g
     inkscape:label="Слой 1"
     inkscape:groupmode="layer"
     id="layer1">
    <g
       transform="matrix(0.01942703,0,0,-0.02004488,-22.706042,230.84579)"
       fill="#000000"
       stroke="none"
       id="g290"
       style="fill:#000000;fill-opacity:1">
      <path
         d="m 6103,10804 c -354,-32 -867,-149 -1153,-264 -266,-107 -441,-188 -599,-277 -51,-29 -95,-53 -97,-53 -11,0 -262,-166 -369,-244 -287,-207 -540,-458 -855,-845 -42,-51 -46,-61 -28,-61 7,0 93,14 191,30 l 179,30 196,198 c 196,197 260,258 337,319 22,17 65,52 95,76 57,45 324,227 334,227 3,0 40,20 82,45 78,46 313,165 394,199 346,145 517,202 790,262 392,86 512,98 940,99 360,0 420,-5 690,-55 546,-102 1002,-280 1470,-575 53,-33 304,-210 334,-236 12,-9 66,-55 121,-100 197,-165 480,-463 631,-665 36,-49 71,-96 78,-104 26,-32 165,-247 192,-297 19,-34 37,-54 53,-58 36,-9 261,-2 268,8 8,13 -51,127 -147,284 -204,330 -392,568 -674,848 -142,140 -159,156 -281,256 -291,240 -724,498 -1080,645 -107,44 -341,124 -480,165 -215,63 -541,123 -795,144 -209,18 -616,18 -817,-1 z"
         id="path2"
         style="fill:#000000;fill-opacity:1" />
      <path
         d="m 6387,10312 c -4,-5 5,-301 13,-414 0,-5 27,-8 60,-8 h 60 v 93 c 0,52 -3,149 -7,215 l -6,122 h -58 c -32,0 -60,-3 -62,-8 z"
         id="path4"
         style="fill:#000000;fill-opacity:1" />
      <path
         d="m 6122,10303 c -24,-2 -45,-10 -48,-17 -3,-7 0,-52 7,-102 25,-200 25,-202 -7,-214 -68,-26 -82,-2 -111,188 l -17,114 -55,-7 c -31,-4 -60,-10 -64,-15 -13,-12 32,-260 56,-310 40,-82 125,-114 224,-85 96,28 134,104 115,227 -7,40 -15,105 -18,143 -6,61 -17,88 -34,83 -3,-1 -24,-3 -48,-5 z"
         id="path6"
         style="fill:#000000;fill-opacity:1" />
      <path
         d="m 6696,10228 c -3,-46 -9,-143 -12,-215 l -7,-133 29,-1 c 16,0 83,-6 149,-13 66,-7 123,-11 128,-9 4,2 7,26 7,53 v 49 l -57,6 c -32,4 -71,10 -88,14 l -30,7 4,162 3,162 h -60 -60 z"
         id="path8"
         style="fill:#000000;fill-opacity:1" />
      <path
         d="m 7141,10198 c -26,-149 -52,-342 -47,-353 4,-10 60,-25 101,-26 12,0 16,16 55,240 17,95 28,177 23,181 -4,4 -33,11 -64,14 l -57,7 z"
         id="path10"
         style="fill:#000000;fill-opacity:1" />
      <path
         d="m 5585,10203 c -97,-22 -90,-15 -130,-123 -21,-54 -41,-97 -45,-95 -4,2 -15,32 -25,67 -10,35 -22,67 -26,71 -9,12 -119,-24 -119,-38 0,-14 149,-387 159,-397 8,-9 106,26 106,38 0,5 -8,38 -18,73 -27,93 -15,96 85,28 87,-60 107,-65 148,-42 14,8 35,14 48,15 53,0 11,38 -161,143 -34,20 -64,42 -65,47 -2,6 15,53 37,105 23,53 41,100 41,105 0,10 -2,11 -35,3 z"
         id="path12"
         style="fill:#000000;fill-opacity:1" />
      <path
         d="m 7477,10193 c -11,-18 -108,-369 -111,-402 0,-8 18,-19 44,-27 70,-21 77,-19 84,25 7,43 46,98 63,88 5,-3 20,-41 32,-84 22,-76 48,-113 78,-113 8,0 30,-7 49,-16 19,-9 37,-15 39,-12 2,2 -16,67 -40,143 -25,77 -45,143 -45,147 0,6 149,96 185,111 17,7 10,13 -44,38 l -64,29 -37,-24 c -37,-24 -135,-76 -145,-76 -10,0 -4,35 14,87 l 17,52 -35,15 c -53,22 -79,28 -84,19 z"
         id="path14"
         style="fill:#000000;fill-opacity:1" />
      <path
         d="m 8061,9987 c -6,-6 -11,-14 -11,-18 0,-4 -25,-60 -56,-125 -78,-166 -104,-225 -104,-238 0,-11 97,-62 104,-55 9,10 167,343 172,363 5,20 -2,28 -44,54 -37,22 -53,27 -61,19 z"
         id="path16"
         style="fill:#000000;fill-opacity:1" />
      <path
         d="m 8296,9778 c -17,-96 -25,-136 -51,-272 l -15,-79 32,-28 c 18,-16 38,-28 45,-29 7,0 82,53 166,118 85,64 163,122 173,129 18,12 16,15 -21,48 -22,19 -46,35 -53,35 -13,0 -108,-67 -152,-107 -30,-28 -56,-31 -45,-5 10,21 44,180 45,204 0,16 -56,59 -95,74 -9,4 -17,-20 -29,-88 z"
         id="path18"
         style="fill:#000000;fill-opacity:1" />
      <path
         d="m 4528,9760 c -193,-35 -375,-132 -499,-268 -54,-59 -108,-140 -193,-287 -66,-114 -105,-151 -170,-164 -89,-18 -346,-62 -481,-81 -71,-11 -175,-26 -230,-35 -55,-8 -147,-22 -205,-31 -58,-8 -197,-31 -310,-50 -113,-20 -232,-39 -265,-44 -66,-9 -187,-29 -370,-61 -181,-32 -270,-70 -320,-135 -15,-20 -25,-37 -24,-38 7,-6 1131,13 1419,23 157,6 416,18 575,27 289,16 455,14 529,-7 141,-39 289,-153 344,-263 31,-61 28,-143 -8,-310 -91,-416 -46,-769 150,-1171 75,-155 141,-260 239,-380 300,-370 675,-640 1111,-803 231,-86 395,-123 648,-146 84,-7 154,-15 156,-17 9,-12 171,-383 187,-431 l 20,-57 -27,-48 c -33,-60 -200,-328 -229,-368 -27,-37 -152,-244 -257,-425 -72,-125 -78,-132 -78,-98 0,51 -37,346 -56,443 -69,356 -144,586 -238,728 -58,88 -195,212 -213,194 -2,-3 2,-18 10,-34 22,-42 41,-117 87,-337 23,-110 57,-251 75,-315 60,-201 99,-360 92,-367 -4,-4 -17,6 -29,22 -13,16 -52,61 -88,99 -51,55 -69,84 -83,130 -30,96 -84,183 -166,265 -53,54 -90,82 -124,95 -49,18 -69,15 -52,-10 79,-114 127,-187 123,-190 -2,-2 -35,23 -73,56 -113,97 -212,168 -287,206 -69,34 -148,54 -148,37 0,-13 109,-183 149,-233 54,-68 106,-117 226,-216 204,-167 307,-277 388,-411 42,-69 76,-143 77,-162 0,-7 -88,76 -195,185 -251,255 -360,342 -544,433 -98,49 -266,99 -282,83 -13,-13 29,-75 111,-160 148,-154 191,-205 280,-332 66,-95 155,-265 146,-279 -13,-22 -47,4 -107,81 -83,107 -221,243 -293,291 -69,46 -173,89 -193,81 -11,-3 -12,-9 -5,-18 9,-12 83,-180 115,-264 9,-24 12,-43 7,-43 -21,0 -153,170 -195,251 -135,262 -171,546 -93,732 12,26 18,50 15,53 -11,11 -85,-36 -126,-81 -58,-63 -90,-138 -100,-240 -19,-188 25,-376 124,-530 19,-30 35,-59 35,-64 0,-5 -28,-1 -62,10 -67,20 -198,37 -198,25 0,-7 71,-93 182,-224 26,-30 45,-58 42,-63 -14,-24 -119,22 -184,81 -19,17 -44,38 -56,45 -17,13 -166,15 -999,15 -538,0 -980,-1 -982,-3 -2,-3 25,-42 59,-88 35,-46 66,-88 70,-94 5,-7 171,-9 491,-6 515,3 523,3 478,-43 -22,-21 -23,-21 -461,-19 -364,2 -440,0 -440,-11 0,-15 21,-45 93,-129 l 49,-57 h 319 c 340,0 337,0 303,-48 -15,-22 -18,-22 -280,-22 -213,0 -264,-3 -264,-13 0,-28 329,-366 540,-555 619,-554 1340,-947 2075,-1131 418,-105 711,-141 1140,-141 556,0 1099,98 1637,296 297,109 638,284 913,467 101,68 429,308 445,326 3,3 34,31 70,61 202,170 680,649 680,682 0,4 -114,8 -253,8 h -254 l -11,25 c -7,14 -12,31 -12,36 0,7 101,10 300,8 165,-1 302,0 304,2 110,130 146,178 146,191 0,5 -190,5 -423,2 l -423,-7 -22,30 c -12,17 -19,33 -15,37 3,3 217,6 473,6 h 468 l 62,89 c 35,49 61,92 59,96 -2,4 -161,8 -353,9 -325,1 -350,2 -360,19 -9,15 -7,22 13,38 22,18 42,19 392,19 h 369 l 17,28 c 9,15 31,50 50,79 18,28 33,57 33,65 0,11 -72,12 -397,10 -229,-2 -400,1 -405,6 -6,6 -3,31 6,64 85,292 50,575 -87,694 -59,52 -177,103 -177,77 0,-5 11,-40 25,-80 43,-128 57,-218 56,-374 0,-112 -5,-167 -20,-231 -21,-88 -69,-238 -81,-251 -3,-4 -7,48 -8,115 -2,318 -124,588 -347,767 -90,72 -174,115 -270,137 -38,9 -80,20 -92,24 -15,6 -25,5 -29,-2 -5,-7 49,-67 138,-152 159,-153 188,-188 241,-286 62,-114 68,-152 74,-476 l 5,-292 -52,-7 c -28,-4 -56,-3 -60,1 -5,5 -10,110 -12,233 l -3,223 -42,38 c -55,48 -168,107 -221,116 -49,8 -50,15 8,-111 49,-107 73,-300 54,-439 -9,-64 -28,-58 -49,17 -30,108 -57,180 -98,262 -53,106 -84,151 -161,228 -84,85 -173,142 -259,169 -61,18 -84,20 -180,14 -60,-4 -114,-9 -119,-12 -12,-8 26,-34 106,-75 232,-120 404,-319 475,-553 31,-100 30,-106 -23,-106 h -43 l -33,68 c -42,84 -99,160 -154,206 -47,38 -113,73 -121,64 -4,-3 1,-30 9,-59 24,-84 32,-179 15,-179 -8,0 -43,30 -79,67 -191,198 -372,316 -560,364 -35,9 -103,14 -190,13 -130,-1 -139,-3 -259,-43 -68,-22 -125,-40 -127,-38 -1,1 13,63 32,137 38,151 64,288 64,339 0,30 -42,123 -187,415 -13,27 -22,55 -19,62 3,7 26,16 53,19 74,11 265,52 408,90 233,60 276,72 485,135 188,57 902,291 1030,337 69,25 186,67 260,93 74,26 178,64 230,83 361,134 473,164 745,201 195,26 406,43 308,23 l -53,-10 -1,-171 c -1,-248 -31,-640 -51,-663 -8,-11 -206,-13 -1070,-13 H 8457 l -74,-42 c -41,-24 -83,-47 -94,-53 -10,-5 -19,-12 -19,-15 0,-3 516,-4 1146,-2 l 1147,2 -7,-62 c -4,-34 -10,-66 -12,-70 -3,-4 -276,-8 -607,-9 -331,0 -611,-4 -622,-8 -16,-6 -10,-11 32,-25 29,-10 62,-25 75,-34 57,-42 85,-52 147,-49 l 61,2 v 43 44 l 78,-7 c 92,-9 210,-37 267,-65 38,-18 62,-20 283,-20 132,0 243,-4 246,-9 6,-9 -17,-107 -27,-117 -3,-3 -78,-5 -166,-5 -89,1 -161,-2 -161,-6 1,-4 9,-26 20,-48 11,-22 19,-46 20,-52 0,-10 31,-13 120,-13 137,0 132,4 105,-88 l -16,-51 -92,-3 -92,-3 v -85 -85 l 235,-5 235,-5 3,-25 c 2,-14 -4,-34 -12,-45 -13,-19 -26,-20 -266,-20 h -251 l -24,-70 c -14,-38 -26,-74 -27,-80 -3,-12 746,-24 767,-13 32,19 226,410 210,426 -2,3 -93,4 -200,3 -176,-2 -195,-1 -195,14 0,9 18,74 40,143 78,251 134,514 167,789 13,108 17,226 18,438 v 291 l 124,27 c 201,43 301,103 383,229 23,37 28,52 19,58 -17,10 -377,40 -1381,115 -598,45 -733,60 -1010,116 -320,64 -422,105 -640,258 -300,211 -465,314 -655,411 -397,201 -771,324 -1435,470 -334,74 -517,161 -595,285 -53,85 -77,162 -116,380 -48,267 -128,433 -276,578 -111,108 -220,171 -361,209 -59,16 -114,21 -237,24 -88,1 -181,-1 -207,-6 z m 435,-176 c 113,-26 213,-80 259,-141 l 22,-28 -25,22 c -75,66 -265,123 -410,123 -145,-1 -282,-18 -296,-37 -7,-9 -13,-11 -13,-5 0,7 -9,12 -20,12 -11,0 -20,-4 -20,-10 0,-5 -6,-7 -14,-4 -7,3 -16,-2 -19,-10 -4,-9 -14,-16 -24,-16 -10,0 -36,-12 -56,-26 -38,-25 -53,-28 -39,-8 9,13 119,79 157,95 128,50 353,65 498,33 z m 187,-230 c 95,-22 158,-59 202,-123 56,-80 46,-92 -19,-24 -32,33 -71,67 -88,75 -33,17 -202,70 -275,87 -39,8 -34,9 35,4 44,-2 109,-11 145,-19 z m -416,-9 c 129,-34 197,-82 364,-258 46,-48 85,-87 88,-87 2,0 25,-16 51,-36 25,-19 68,-46 94,-59 26,-14 68,-44 93,-67 43,-40 47,-49 71,-147 34,-140 122,-284 208,-338 42,-27 38,-46 -5,-21 -13,7 -27,13 -33,14 -5,0 -22,6 -36,12 -27,11 -47,42 -27,42 7,0 6,5 -2,15 -7,9 -18,14 -25,12 -6,-3 -17,9 -25,26 -12,28 -14,29 -21,11 -6,-15 -13,-5 -38,51 -58,127 -76,159 -111,199 -33,37 -171,146 -185,146 -8,0 -126,80 -143,97 -7,7 -16,13 -20,13 -4,0 -34,25 -67,55 -78,72 -223,172 -276,190 -55,20 -143,19 -201,-2 -36,-13 -64,-35 -119,-95 -38,-43 -77,-78 -85,-78 -8,0 -14,-4 -14,-9 0,-14 -114,-89 -201,-131 l -83,-40 h 81 c 77,0 121,8 171,33 18,8 25,8 31,-2 6,-9 10,-7 14,8 3,12 13,24 24,28 10,3 34,19 54,34 l 36,28 28,-29 c 82,-85 237,-75 296,20 13,22 28,40 32,40 12,0 107,-64 107,-72 0,-5 6,-8 13,-8 7,0 29,-15 49,-32 31,-28 35,-36 27,-57 -7,-19 -12,-22 -21,-13 -18,18 -32,14 -43,-10 -7,-16 -18,-23 -37,-23 -16,1 -28,-5 -28,-12 0,-7 -19,-17 -42,-24 -76,-20 -75,-20 -54,-32 63,-40 84,-57 116,-99 77,-103 95,-218 61,-393 -12,-60 -26,-123 -31,-140 -21,-67 -30,-175 -20,-246 32,-228 229,-388 475,-389 66,0 220,33 280,59 27,12 50,20 52,18 2,-2 -3,-33 -12,-68 -26,-114 -14,-264 32,-388 28,-77 102,-203 157,-266 110,-128 225,-214 396,-296 197,-95 330,-125 665,-149 170,-12 717,-16 734,-6 6,4 17,3 24,-3 8,-6 27,-7 52,-1 38,8 95,13 122,11 7,-1 10,-8 6,-17 -4,-12 2,-11 31,5 41,24 125,29 127,9 0,-10 2,-10 6,0 6,15 33,16 33,1 0,-8 5,-8 15,1 8,7 34,14 57,15 70,5 162,16 182,22 10,3 22,-1 27,-8 6,-10 9,-11 9,-1 0,7 14,12 34,12 19,0 37,-6 39,-12 3,-8 6,-6 6,5 1,18 31,25 31,7 0,-5 4,-10 10,-10 5,0 9,6 7,13 -1,7 11,12 33,13 19,1 40,2 45,4 6,1 14,2 19,1 5,-1 31,4 57,10 43,11 51,11 68,-5 11,-10 28,-16 38,-13 14,4 14,5 -4,6 -44,2 -22,18 34,25 41,5 59,3 65,-6 5,-9 8,-7 8,7 1,20 1,20 15,1 13,-17 15,-18 15,-3 0,17 7,19 93,21 23,1 46,6 50,11 6,7 10,6 13,-2 4,-8 11,-9 22,-3 9,5 71,16 137,24 91,11 122,12 127,3 6,-9 10,-8 17,2 8,12 12,12 25,2 13,-11 16,-11 16,3 0,12 6,15 24,10 13,-3 27,-1 30,4 3,6 34,13 69,17 34,3 80,8 102,10 22,2 85,8 139,14 55,6 101,9 104,7 5,-6 -55,-36 -163,-81 -260,-108 -1375,-471 -1720,-560 -49,-13 -151,-40 -225,-60 -109,-29 -268,-65 -289,-65 -3,0 30,18 72,39 50,25 85,37 99,33 17,-4 20,-2 15,12 -5,13 -1,16 21,14 15,-1 37,2 49,6 18,6 22,4 17,-8 -9,-25 4,-19 37,16 27,27 30,28 24,9 -6,-19 -4,-22 12,-19 10,2 17,11 17,21 -1,9 4,17 12,17 8,0 14,5 14,12 0,6 7,4 18,-5 23,-21 32,-21 32,-2 0,9 6,15 13,14 20,-3 47,12 41,23 -4,6 2,8 12,6 11,-2 18,-10 17,-16 -2,-7 4,-12 12,-12 8,0 15,5 15,10 0,6 6,10 14,10 21,0 28,28 9,38 -12,7 -13,11 -3,17 8,5 18,1 26,-9 8,-11 14,-13 19,-6 10,16 25,2 18,-17 -6,-15 -5,-16 9,-3 15,13 15,17 2,26 -16,13 -19,34 -4,34 6,0 10,10 10,22 0,17 3,19 12,10 9,-9 9,-15 0,-24 -15,-15 -16,-28 -2,-28 6,0 10,6 10,14 0,8 10,14 25,14 13,0 22,-4 20,-8 -7,-11 5,-40 15,-40 5,0 6,10 2,23 -5,20 -4,21 11,8 15,-12 17,-11 17,2 0,9 -4,19 -10,22 -5,3 -10,11 -10,16 0,12 43,1 48,-12 6,-15 22,-10 22,6 0,8 6,15 14,15 9,0 12,-7 9,-20 -3,-11 0,-20 6,-20 5,0 8,7 5,15 -5,12 2,15 32,15 29,0 35,3 24,10 -12,7 -12,12 -3,21 9,9 16,9 28,-1 12,-10 15,-10 15,4 0,10 -9,16 -25,16 -31,0 -43,25 -26,53 11,17 10,22 -4,29 -12,7 -13,13 -5,23 7,8 9,19 5,24 -6,11 29,51 44,51 6,0 13,4 16,10 3,6 -1,7 -9,4 -9,-3 -29,-1 -46,4 -16,6 -30,7 -30,3 0,-5 9,-11 20,-14 11,-3 20,-10 20,-15 0,-14 -47,-21 -59,-9 -8,8 -11,5 -11,-10 0,-12 -6,-24 -12,-27 -10,-5 -10,-7 0,-12 19,-9 14,-23 -13,-36 -30,-13 -33,-28 -6,-28 11,0 23,9 26,21 4,11 14,19 23,17 25,-5 25,-25 0,-32 -22,-6 -23,-7 -4,-21 11,-8 16,-18 12,-22 -4,-5 -13,0 -20,10 -17,22 -26,22 -26,-3 0,-11 5,-20 11,-20 5,0 7,-4 4,-10 -3,-5 -11,-10 -16,-10 -6,0 -7,5 -4,10 3,6 1,10 -4,10 -6,0 -11,9 -11,20 0,26 -11,25 -44,-1 -26,-21 -28,-21 -42,-3 -11,14 -17,15 -20,7 -4,-10 -9,-10 -20,1 -20,20 -18,28 5,21 11,-3 23,0 27,7 4,6 2,14 -4,16 -7,2 -12,11 -12,20 0,13 -8,8 -30,-15 -30,-32 -39,-50 -20,-38 6,3 10,-3 10,-14 0,-12 7,-21 15,-21 17,0 20,-16 6,-25 -6,-3 -15,4 -21,15 -7,14 -17,19 -29,15 -23,-7 -35,29 -16,45 7,6 18,24 25,40 8,20 17,27 28,22 14,-5 15,-4 2,10 -9,10 -17,12 -21,6 -4,-6 -18,-10 -33,-10 -16,0 -26,-6 -26,-15 0,-10 6,-13 16,-9 10,4 14,2 11,-6 -2,-7 -9,-12 -14,-11 -6,1 -9,-25 -7,-62 2,-36 -1,-67 -7,-70 -5,-4 -7,-11 -4,-16 4,-5 1,-9 -4,-9 -14,0 -14,6 0,32 15,27 -5,72 -38,87 -14,6 -28,9 -31,6 -3,-3 0,-5 6,-5 7,0 12,-6 12,-14 0,-11 -5,-12 -25,-3 -30,14 -31,28 -5,52 11,10 20,22 20,27 0,11 -37,11 -42,0 -4,-13 -103,-82 -116,-82 -6,0 -12,-6 -14,-12 -4,-10 -10,-10 -31,-1 -16,8 -27,9 -27,3 0,-6 7,-10 16,-10 8,0 12,-5 8,-11 -3,-6 -19,-9 -34,-5 -22,4 -27,1 -26,-12 1,-12 -6,-17 -26,-15 -19,1 -28,-4 -32,-20 -6,-21 -7,-21 -21,-3 -14,18 -15,18 -25,-9 -10,-27 -11,-27 -25,-9 -8,10 -17,34 -21,51 -3,18 -10,31 -14,28 -4,-3 -3,-23 2,-45 12,-45 6,-70 -17,-70 -9,0 -14,4 -11,9 4,5 0,11 -6,14 -10,3 -10,7 1,20 12,15 11,17 -8,17 -11,0 -21,5 -21,10 0,6 -5,10 -10,10 -6,0 -4,-10 4,-22 8,-13 17,-34 21,-46 6,-21 4,-23 -13,-18 -13,4 -22,1 -26,-9 -9,-26 -26,-17 -26,15 0,17 -5,30 -10,30 -7,0 -8,-14 -4,-37 6,-33 5,-36 -8,-23 -8,8 -20,24 -26,35 -11,17 -12,15 -6,-17 7,-40 -9,-51 -34,-26 -10,10 -14,8 -18,-10 -7,-26 -8,-26 -40,-6 -19,13 -28,14 -37,5 -8,-8 -6,-11 11,-11 12,0 22,-4 22,-10 0,-10 -5,-12 -50,-15 -14,-1 -36,-5 -49,-10 -25,-8 -26,0 -7,45 9,22 -27,42 -56,31 -22,-9 -22,-10 10,-21 36,-14 42,-29 12,-37 -11,-3 -20,-12 -20,-19 0,-8 -9,-14 -21,-14 -20,0 -20,1 -3,30 17,28 12,59 -5,31 -5,-7 -13,-11 -19,-7 -6,3 -13,2 -17,-4 -3,-5 1,-10 9,-10 9,0 16,-4 16,-10 0,-5 -7,-10 -15,-10 -8,0 -15,-7 -15,-15 0,-8 -7,-15 -15,-15 -24,0 -30,4 -27,18 5,21 -15,13 -21,-8 -3,-11 -11,-20 -17,-20 -8,0 -10,8 -7,21 7,25 -1,49 -15,49 -6,0 -5,-7 3,-16 10,-13 10,-17 0,-24 -8,-4 -10,-13 -7,-19 4,-7 -1,-11 -13,-11 -11,0 -22,4 -26,9 -3,6 -16,4 -32,-4 -15,-8 -31,-11 -37,-7 -7,4 -4,8 7,10 23,5 22,18 -4,25 -15,4 -23,-1 -31,-19 -6,-13 -19,-24 -30,-24 -20,0 -25,16 -6,22 6,2 8,9 4,16 -10,16 -36,3 -36,-19 0,-12 -7,-19 -20,-19 -24,0 -27,25 -4,38 11,6 13,11 5,16 -6,4 -14,0 -17,-8 -3,-9 -15,-16 -26,-16 -10,0 -17,-4 -14,-9 9,-14 -16,-19 -48,-10 -16,5 -33,6 -39,2 -5,-3 -16,2 -23,11 -8,11 -14,13 -19,7 -10,-17 -55,-13 -55,4 0,8 -4,15 -10,15 -5,0 -10,-4 -10,-10 0,-5 -7,-10 -16,-10 -10,0 -14,6 -10,15 3,8 1,15 -4,15 -6,0 -10,-4 -10,-10 0,-5 -11,-10 -25,-10 -29,0 -32,8 -7,27 15,13 15,13 -8,7 -14,-4 -26,-11 -28,-15 -4,-11 -52,-12 -52,-1 0,4 -35,15 -78,25 -86,19 -108,32 -91,54 8,9 8,13 1,13 -6,0 -15,-7 -19,-15 -7,-13 -13,-13 -36,-3 -16,8 -25,19 -22,27 4,10 -1,12 -19,7 -16,-4 -41,4 -77,23 -56,30 -73,51 -42,52 16,0 16,1 -2,8 -14,6 -24,3 -32,-8 -10,-14 -14,-12 -38,12 -15,15 -34,27 -41,27 -8,0 -14,6 -14,14 0,7 -9,16 -20,19 -13,3 -18,10 -14,21 4,10 1,16 -9,16 -8,0 -17,3 -20,8 -2,4 -2,0 1,-8 3,-8 7,-27 10,-42 2,-16 8,-28 12,-28 4,0 15,-12 25,-26 12,-18 13,-29 6,-38 -8,-10 -7,-17 6,-27 9,-8 14,-9 10,-2 -13,21 10,23 28,3 17,-19 17,-20 1,-20 -10,0 -16,-6 -13,-12 2,-7 12,-12 22,-10 19,4 97,-66 89,-80 -3,-4 4,-8 15,-8 27,0 26,-4 -4,-34 -14,-14 -25,-31 -25,-38 0,-7 11,0 25,15 31,33 56,36 48,6 -5,-19 -4,-20 16,-10 18,10 21,9 21,-9 0,-15 -7,-20 -26,-20 -17,0 -23,-4 -18,-12 5,-8 2,-9 -12,-4 -10,5 -39,16 -64,26 -73,28 -130,55 -130,61 0,3 11,12 25,19 14,7 25,17 25,22 0,5 -5,6 -11,2 -8,-5 -10,1 -6,19 7,24 6,24 -18,14 -29,-14 -33,-27 -8,-27 31,0 -1,-19 -37,-22 -27,-2 -35,1 -35,14 0,25 -13,33 -53,33 -19,0 -37,6 -39,13 -3,7 1,10 11,6 11,-4 16,-1 16,10 0,19 -46,23 -52,5 -5,-16 -88,31 -88,49 0,7 -5,10 -10,7 -6,-3 -24,4 -41,16 -27,19 -29,24 -17,33 8,6 13,17 10,24 -3,10 -8,9 -23,-4 -23,-21 -35,-13 -20,14 9,17 6,21 -22,27 -18,5 -39,9 -47,9 -25,2 -60,26 -60,41 0,8 -6,12 -14,9 -18,-7 -32,16 -16,26 7,4 9,13 5,19 -5,9 -10,9 -21,0 -18,-15 -68,15 -60,36 3,8 0,12 -7,9 -7,-2 -32,17 -57,43 -36,37 -40,45 -23,41 20,-5 21,-4 12,14 -8,15 -14,17 -24,8 -10,-8 -19,-8 -34,2 -12,7 -21,16 -21,21 0,4 -18,27 -40,49 -41,43 -48,58 -29,58 8,0 8,4 -1,14 -6,8 -18,12 -25,10 -9,-4 -27,14 -50,48 -19,29 -51,76 -70,104 -19,28 -44,71 -56,95 -13,24 -26,46 -29,49 -8,7 -43,84 -65,145 -10,28 -21,55 -25,60 -20,30 -64,200 -84,327 -30,184 -21,317 41,637 30,159 28,220 -13,312 -26,60 -88,149 -108,158 -5,2 -19,14 -30,26 -48,49 -226,155 -301,178 -27,9 -82,21 -121,27 l -71,11 -18,77 c -9,42 -17,81 -16,87 0,5 41,15 91,22 109,15 177,49 249,127 26,28 71,76 100,107 53,58 141,110 217,128 62,14 174,12 238,-4 z m -122,-212 c 23,-21 23,-32 -4,-60 -25,-27 -41,-29 -62,-7 -30,29 -9,84 31,84 9,0 25,-7 35,-17 z m 735,-39 c 25,-14 52,-42 67,-67 26,-45 41,-97 29,-97 -14,0 -64,70 -58,80 3,6 0,10 -7,10 -7,0 -23,16 -35,35 -13,19 -40,44 -60,55 -36,20 -37,21 -8,15 17,-4 49,-17 72,-31 z m -302,-424 c 3,-5 -1,-10 -10,-10 -9,0 -13,5 -10,10 3,6 8,10 10,10 2,0 7,-4 10,-10 z m 81,-141 c 1,-16 -2,-29 -7,-29 -5,0 -9,17 -9,37 0,42 14,36 16,-8 z m -6,-89 c 0,-5 -2,-10 -4,-10 -3,0 -8,5 -11,10 -3,6 -1,10 4,10 6,0 11,-4 11,-10 z m 400,-200 c 0,-5 -7,-10 -15,-10 -8,0 -15,5 -15,10 0,6 7,10 15,10 8,0 15,-4 15,-10 z m 40,-59 c 0,-5 10,-11 22,-14 12,-4 19,-9 16,-12 -6,-6 -68,21 -68,30 0,3 7,5 15,5 8,0 15,-4 15,-9 z m 145,-28 c -11,-3 -24,-9 -29,-14 -13,-12 -26,-12 -26,0 0,11 24,19 55,19 h 20 z m 208,-43 c 64,-16 150,-45 190,-63 67,-31 168,-104 210,-151 10,-12 38,-42 63,-68 24,-26 44,-52 44,-58 0,-19 -76,30 -149,95 -37,34 -84,71 -104,84 -25,15 -37,30 -37,45 0,18 -12,28 -57,48 -57,25 -198,65 -260,75 -18,3 -33,9 -33,14 0,13 2,12 133,-21 z m 518,-8 c 37,-10 86,-30 110,-45 47,-27 156,-133 147,-142 -3,-3 -36,18 -74,46 -58,44 -148,91 -274,147 l -25,11 h 25 c 14,1 55,-7 91,-17 z m 481,-122 c 51,-16 116,-45 143,-64 58,-40 169,-151 140,-140 -11,5 -26,14 -33,21 -43,42 -199,128 -307,168 -27,10 -59,25 -70,32 -18,12 -18,13 8,13 15,0 68,-13 119,-30 z m -1392,-15 c 16,-9 19,-14 10,-15 -9,0 -20,4 -25,9 -6,5 -19,11 -30,14 l -20,5 h 20 c 11,1 31,-5 45,-13 z m 240,-55 c 0,-5 -7,-7 -15,-4 -8,4 -15,8 -15,10 0,2 7,4 15,4 8,0 15,-4 15,-10 z m -60,-20 c 0,-5 -5,-10 -11,-10 -5,0 -7,5 -4,10 3,6 8,10 11,10 2,0 4,-4 4,-10 z m 165,-4 c 19,-10 23,-16 14,-22 -7,-4 -15,-2 -17,4 -2,7 -10,12 -18,12 -8,0 -14,5 -14,10 0,13 3,13 35,-4 z m 825,-66 c 52,-16 118,-43 145,-59 51,-29 225,-186 225,-202 0,-11 -52,8 -65,24 -39,49 -167,134 -274,183 -66,30 -124,54 -129,54 -5,0 -23,7 -38,15 l -29,15 h 35 c 20,0 78,-13 130,-30 z m -693,14 c -3,-3 -12,-4 -19,-1 -8,3 -5,6 6,6 11,1 17,-2 13,-5 z m 1500,-65 c 75,-27 183,-79 291,-141 51,-29 104,-59 116,-65 13,-7 29,-19 35,-27 18,-22 -99,17 -151,51 -46,29 -334,173 -347,173 -14,0 -61,25 -61,33 0,11 51,1 117,-24 z m -992,-133 c 43,-29 50,-38 73,-82 37,-72 56,-241 27,-238 -14,2 -22,23 -35,99 -7,39 -24,96 -37,128 -22,48 -35,63 -82,92 l -56,34 40,-6 c 22,-3 54,-15 70,-27 z m 855,-9 c 96,-39 163,-89 204,-152 41,-61 69,-141 61,-172 -7,-31 -21,-29 -30,5 -3,15 -23,60 -43,101 -47,93 -103,144 -237,212 -109,56 -85,59 45,6 z m -1117,-63 c 17,-25 37,-60 44,-77 15,-40 16,-192 2,-218 -16,-31 -29,-13 -29,41 0,66 -24,185 -49,243 -24,56 -24,57 -11,57 6,0 25,-21 43,-46 z m 538,-91 c 37,-38 79,-134 79,-178 0,-40 -21,-125 -31,-125 -5,0 -9,17 -9,38 0,51 -30,152 -73,245 -39,84 -31,89 34,20 z m -820,-165 c -7,-80 -17,-161 -21,-180 -7,-33 -7,-33 -15,17 -8,49 -1,257 11,329 l 7,39 15,-29 c 13,-25 14,-47 3,-176 z m 1119,145 c 159,-45 228,-133 210,-266 -8,-57 -24,-49 -31,14 -4,33 -18,77 -35,108 -26,49 -35,56 -119,96 -49,23 -106,46 -125,50 -19,4 -42,12 -50,17 -22,13 82,0 150,-19 z m 1010,-49 c 79,-24 136,-57 221,-124 37,-29 45,-40 31,-40 -11,0 -30,9 -43,19 -28,22 -165,87 -224,106 -79,26 -190,67 -195,72 -12,13 142,-11 210,-33 z m -297,-41 c 42,-26 109,-76 136,-101 7,-7 44,-37 80,-67 112,-90 137,-114 121,-115 -9,0 -31,10 -50,23 -19,13 -55,33 -78,45 -53,27 -166,116 -207,164 -16,19 -39,44 -49,56 -26,30 -5,28 47,-5 z M 6520,7227 c 72,-76 263,-237 281,-237 5,0 9,-5 9,-11 0,-40 -182,64 -276,158 -32,32 -82,107 -100,149 -20,48 -7,39 86,-59 z m 941,35 c 72,-51 225,-179 248,-205 16,-21 8,-21 -51,-3 -53,15 -119,71 -226,191 -74,83 -67,86 29,17 z m -402,-87 c 102,-89 192,-164 207,-173 27,-15 11,-24 -29,-17 -22,4 -34,12 -31,19 3,7 -6,18 -18,24 -13,7 -32,18 -43,24 -26,17 -143,138 -157,163 -11,19 -10,19 17,1 15,-10 39,-28 54,-41 z m 1448,-46 c 32,-6 77,-27 120,-55 l 68,-44 -55,6 c -57,6 -118,21 -135,34 -5,4 -28,11 -50,15 -36,6 -38,8 -17,16 30,11 28,23 -3,17 -14,-3 -49,3 -77,12 l -53,18 75,-5 c 41,-2 98,-9 127,-14 z M 6459,6855 c 2,-3 -3,-5 -11,-5 -16,0 -99,61 -161,119 -34,32 -87,116 -87,139 0,6 219,-208 259,-253 z m 1742,121 c 59,-14 131,-36 160,-51 61,-31 123,-75 115,-82 -6,-7 -69,13 -131,42 -27,13 -106,42 -175,65 -69,23 -127,44 -129,46 -12,11 66,1 160,-20 z m 884,-6 c 58,-9 364,-93 525,-144 41,-13 101,-31 133,-40 31,-9 57,-20 57,-23 0,-3 -30,-3 -66,1 -108,11 -286,59 -509,136 -66,23 -142,48 -169,56 -87,24 -73,31 29,14 z m -1346,-30 c 107,-13 179,-39 272,-99 66,-44 64,-45 -36,-12 -33,11 -132,40 -220,66 -88,25 -171,51 -185,56 -27,10 -12,9 169,-11 z m 1020,-11 c 38,-6 91,-23 120,-38 93,-47 202,-116 192,-119 -13,-4 -133,25 -167,40 -13,6 -21,15 -18,19 10,17 -123,74 -221,94 -60,13 -60,13 -17,14 24,1 74,-4 111,-10 z m -1454,-44 c 43,-3 83,-17 143,-47 45,-23 82,-46 82,-51 0,-10 -60,1 -77,15 -7,6 -13,7 -13,2 0,-5 -4,-3 -8,3 -8,13 -55,25 -217,59 -59,13 -75,19 -60,25 11,4 36,6 55,4 19,-3 62,-7 95,-10 z m -452,-26 c 42,-10 144,-76 134,-86 -6,-6 -142,24 -172,38 -15,7 -11,7 15,3 51,-9 26,14 -42,37 l -53,18 38,1 c 21,0 57,-5 80,-11 z m 4157,-64 c 0,-9 -81,-26 -135,-27 -30,-1 -55,-4 -55,-7 0,-3 -32,-7 -70,-8 -125,-3 -71,20 95,40 46,6 165,8 165,2 z m -4452,-69 c 30,-10 57,-27 66,-42 20,-29 18,-29 -36,-5 -24,11 -78,32 -120,47 -43,15 -78,30 -78,34 0,8 101,-12 168,-34 z m 4097,25 c -29,-12 -118,-20 -108,-11 10,10 46,17 93,18 27,1 30,-1 15,-7 z m -2006,-22 c 65,-12 131,-34 131,-45 0,-11 -220,30 -250,47 -22,12 40,11 119,-2 z m -387,-50 c 84,-20 149,-48 113,-48 -11,-1 -56,6 -100,14 -44,8 -120,22 -170,31 -49,8 -94,19 -99,24 -15,15 172,0 256,-21 z m -1112,-19 c 20,-10 43,-26 50,-35 13,-16 12,-16 -22,-2 -20,9 -87,26 -148,38 -61,13 -104,26 -95,29 29,10 176,-10 215,-30 z m 473,25 c 40,-3 84,-14 105,-26 l 37,-20 -70,6 c -38,4 -106,13 -150,21 -44,7 -87,14 -95,15 -8,0 -4,5 10,9 14,4 41,6 60,4 19,-2 66,-6 103,-9 z m 3187,-105 c -8,-5 -26,-9 -40,-9 l -25,1 25,8 c 14,4 32,8 40,9 13,1 13,0 0,-9 z M 8280,6285 c 0,-8 -9,-15 -20,-15 -25,0 -26,17 -2,23 9,3 18,5 20,6 1,0 2,-6 2,-14 z m -2970,-95 c 0,-5 -2,-10 -4,-10 -3,0 -8,5 -11,10 -3,6 -1,10 4,10 6,0 11,-4 11,-10 z m 2550,-15 c 0,-8 8,-15 18,-15 26,0 34,-11 21,-27 -15,-17 -29,-17 -29,2 0,8 -8,15 -18,15 -26,0 -33,10 -19,26 16,18 27,17 27,-1 z m 90,-26 c 0,-10 -4,-19 -10,-19 -5,0 -10,12 -10,26 0,14 4,23 10,19 6,-3 10,-15 10,-26 z m 250,-18 c 0,-11 -5,-9 -19,5 -12,12 -14,21 -7,26 12,8 26,-9 26,-31 z m -86,14 c 3,-8 1,-15 -3,-15 -5,0 -11,7 -15,15 -3,8 -1,15 3,15 5,0 11,-7 15,-15 z m -299,-5 c 3,-5 1,-10 -4,-10 -6,0 -11,5 -11,10 0,6 2,10 4,10 3,0 8,-4 11,-10 z m 217,-12 c -7,-7 -12,-8 -12,-2 0,14 12,26 19,19 2,-3 -1,-11 -7,-17 z m 118,12 c 0,-5 -4,-10 -10,-10 -5,0 -10,5 -10,10 0,6 5,10 10,10 6,0 10,-4 10,-10 z m 130,-10 c 0,-5 -2,-10 -4,-10 -3,0 -8,5 -11,10 -3,6 -1,10 4,10 6,0 11,-4 11,-10 z m -360,-82 c 0,-16 -19,-8 -30,12 -6,11 -15,18 -21,15 -5,-4 -9,1 -9,10 0,13 5,12 30,-7 17,-12 30,-25 30,-30 z m 28,29 c 5,-24 -15,-21 -21,4 -3,13 -1,19 6,16 7,-2 13,-11 15,-20 z m -133,-32 c -24,-17 -35,-19 -35,-5 0,6 7,10 16,10 11,0 14,6 9,23 -7,21 -6,21 11,5 17,-17 17,-18 -1,-33 z m 203,26 c 3,-8 -1,-12 -9,-9 -7,2 -15,10 -17,17 -3,8 1,12 9,9 7,-2 15,-10 17,-17 z m -140,-34 c 5,-23 -10,-21 -26,4 -12,18 -11,20 5,17 10,-2 19,-11 21,-21 z m -34,-23 c 3,-8 2,-12 -4,-9 -6,3 -10,10 -10,16 0,14 7,11 14,-7 z m 126,6 c 0,-5 -4,-10 -10,-10 -5,0 -10,5 -10,10 0,6 5,10 10,10 6,0 10,-4 10,-10 z m -253,-25 c 23,-24 11,-39 -15,-17 -12,10 -19,22 -15,26 9,9 13,8 30,-9 z M 6005,5863 c -22,-21 -19,-24 12,-12 19,7 29,7 31,0 2,-6 13,-11 25,-11 23,-1 60,-23 52,-32 -3,-2 9,-3 25,0 18,3 30,0 30,-7 0,-6 9,-11 19,-11 21,0 37,-16 24,-23 -10,-6 -172,35 -240,60 -51,19 -60,33 -21,33 10,0 21,6 24,14 3,8 12,12 20,9 11,-4 11,-7 -1,-20 z m 355,-107 c 47,-9 99,-17 115,-19 17,-2 3,-4 -30,-5 -33,0 -82,4 -110,9 -27,6 -60,10 -72,11 -13,0 -23,6 -23,15 0,9 7,12 18,9 9,-2 55,-12 102,-20 z m 197,-32 c -3,-3 -12,-4 -19,-1 -8,3 -5,6 6,6 11,1 17,-2 13,-5 z m 507,-381 c 141,-283 133,-242 90,-467 -20,-105 -41,-194 -45,-197 -5,-3 -42,0 -82,7 -39,7 -98,13 -129,14 -32,0 -58,4 -58,8 0,5 17,33 38,63 68,97 152,241 152,258 0,25 -32,116 -69,196 -17,36 -31,68 -31,71 0,2 -20,49 -45,104 -25,55 -45,107 -45,114 0,16 23,23 86,25 l 41,1 z m 816,-828 c 179,-55 353,-198 491,-404 28,-41 46,-78 41,-83 -10,-10 -102,1 -102,13 0,4 -14,7 -30,7 -38,-1 -38,-1 -43,47 -4,36 -7,41 -38,46 -19,4 -28,7 -21,8 8,1 10,10 6,29 -8,32 -20,41 -45,35 -14,-4 -19,0 -19,15 0,14 -8,22 -22,24 -13,2 -23,10 -24,18 -2,30 -4,32 -21,19 -15,-12 -16,-12 -11,3 4,10 1,19 -8,22 -8,3 -14,10 -14,17 0,16 -42,48 -62,49 -11,0 -18,8 -18,20 0,13 -7,20 -20,20 -12,0 -17,5 -14,14 8,22 -15,30 -35,12 -23,-21 -59,-22 -42,-2 9,11 6,15 -15,20 -21,6 -24,9 -14,21 10,12 9,15 -4,15 -9,0 -16,-4 -16,-10 0,-18 -22,-11 -27,9 -6,25 -47,32 -67,12 -15,-14 -16,-13 -16,5 0,11 2,23 5,25 8,9 149,-10 205,-26 z m -840,-24 c 0,-5 -7,-12 -16,-15 -22,-9 -24,-8 -24,9 0,8 9,15 20,15 11,0 20,-4 20,-9 z m 163,-16 c 53,-14 126,-38 160,-54 90,-40 211,-125 288,-201 70,-69 154,-184 145,-199 -7,-11 -86,8 -86,21 0,6 -11,7 -26,4 -23,-6 -26,-4 -21,14 4,17 2,20 -13,15 -15,-5 -17,-2 -13,16 6,21 5,21 -20,4 -26,-17 -47,-14 -47,7 0,5 7,7 15,4 17,-6 44,39 30,52 -4,4 -10,1 -12,-5 -7,-19 -23,-16 -23,5 -1,14 -4,13 -20,-7 -11,-13 -20,-29 -20,-37 0,-8 -7,-14 -15,-14 -19,0 -20,16 -1,23 8,3 14,22 14,49 1,37 -1,41 -12,26 -17,-24 -36,-23 -36,1 0,23 -22,40 -28,23 -2,-7 -11,-12 -19,-12 -10,0 -13,6 -9,16 3,8 -3,25 -14,36 -17,19 -20,19 -20,5 0,-9 -3,-17 -6,-17 -13,0 -69,65 -66,77 3,13 -73,38 -87,28 -5,-3 -7,3 -4,14 6,23 -13,37 -32,21 -10,-8 -15,-8 -21,1 -5,8 -3,10 7,5 8,-4 3,1 -10,12 -18,14 -31,18 -46,12 -29,-11 -58,6 -50,31 8,23 -20,27 -29,4 -3,-8 -10,-15 -16,-15 -6,0 -4,12 5,30 19,37 31,37 158,5 z m 557,-5 c 0,-5 -4,-10 -10,-10 -5,0 -10,5 -10,10 0,6 5,10 10,10 6,0 10,-4 10,-10 z m -460,-151 c 0,-6 -4,-7 -10,-4 -5,3 -10,11 -10,16 0,6 5,7 10,4 6,-3 10,-11 10,-16 z m 692,-1 c -7,-7 -12,-8 -12,-2 0,14 12,26 19,19 2,-3 -1,-11 -7,-17 z m -512,-118 c 0,-5 -5,-10 -11,-10 -5,0 -7,5 -4,10 3,6 8,10 11,10 2,0 4,-4 4,-10 z m 690,-20 c 0,-5 -2,-10 -4,-10 -3,0 -8,5 -11,10 -3,6 -1,10 4,10 6,0 11,-4 11,-10 z M 3833,3896 c 44,-19 67,-34 67,-45 0,-9 -21,-68 -46,-131 -83,-210 -164,-425 -164,-436 0,-9 168,-83 348,-154 29,-11 33,-16 27,-39 -8,-36 -68,-161 -77,-161 -11,0 -192,73 -278,113 -41,18 -95,42 -120,53 -107,45 -185,90 -183,104 1,8 36,96 78,195 41,99 108,259 147,355 39,96 75,181 81,188 8,10 14,10 31,-1 12,-7 51,-26 89,-41 z m 5555,-1 c 26,-68 201,-490 242,-585 48,-108 50,-117 37,-129 -18,-14 -176,-81 -192,-81 -7,0 -19,17 -26,38 -18,56 -120,296 -130,306 -5,5 -11,8 -13,5 -7,-6 -35,-142 -57,-274 -11,-66 -24,-123 -27,-127 -4,-4 -21,-10 -37,-13 -26,-6 -44,5 -145,85 -133,106 -199,154 -206,147 -3,-2 0,-15 5,-28 23,-55 121,-333 121,-344 0,-7 -19,-20 -42,-29 -24,-10 -62,-26 -86,-37 -57,-25 -71,-24 -83,9 -40,101 -99,264 -164,457 -18,55 -50,144 -69,198 -20,54 -36,104 -36,110 0,11 160,77 185,77 4,0 33,-22 64,-48 115,-98 333,-264 339,-257 8,7 26,84 76,319 19,87 39,163 44,168 15,15 155,76 171,75 7,-1 20,-20 29,-42 z m -1042,-84 c -3,-5 -43,-19 -88,-31 -189,-51 -151,-50 -1719,-50 -956,0 -1495,4 -1550,10 -101,13 -299,59 -299,70 0,5 824,9 1831,9 1099,1 1828,-2 1825,-8 z M 4553,3633 c 66,-20 122,-44 127,-52 4,-9 31,-83 60,-166 29,-82 55,-156 60,-164 6,-11 32,9 106,81 138,133 166,158 182,158 28,0 212,-62 212,-71 0,-6 -6,-16 -13,-22 -7,-7 -44,-41 -82,-77 -39,-36 -104,-94 -145,-130 -41,-36 -104,-93 -140,-127 l -65,-62 -28,-123 c -33,-143 -46,-186 -55,-192 -4,-2 -52,11 -107,28 -84,28 -100,36 -97,52 2,10 18,76 37,145 19,70 35,137 35,149 0,13 -18,69 -39,124 -68,172 -181,474 -181,482 0,8 15,4 133,-33 z m 2926,-103 c 32,-1 1,-9 -89,-24 -134,-22 -426,-44 -690,-52 -264,-7 -535,6 -845,41 -121,14 -224,25 -228,25 -5,0 -6,3 -4,8 4,5 1686,7 1856,2 z m 738,-136 c 68,-292 85,-386 81,-459 -8,-172 -141,-307 -344,-350 -88,-19 -108,-19 -202,1 -189,38 -265,140 -322,430 -17,88 -37,188 -45,224 -29,130 -32,123 60,142 133,27 130,28 145,-44 41,-197 90,-417 98,-439 34,-88 123,-131 224,-110 104,23 163,88 160,181 0,25 -23,146 -51,270 -28,123 -47,228 -43,232 10,9 185,66 197,64 5,-1 24,-65 42,-142 z m -2301,-43 c 93,-18 159,-49 222,-106 85,-78 86,-85 16,-156 -32,-33 -63,-59 -69,-59 -5,0 -25,16 -44,35 -55,55 -115,79 -196,79 -115,0 -198,-58 -230,-162 -16,-48 -16,-65 -7,-111 17,-82 52,-127 125,-162 97,-46 217,-33 308,32 l 32,23 16,-24 c 22,-32 61,-148 55,-163 -15,-38 -160,-97 -260,-104 -285,-22 -519,198 -501,471 7,122 50,212 137,293 103,96 257,140 396,114 z m 1178,-53 c 4,-24 7,-68 9,-98 l 2,-55 -200,-14 c -110,-8 -202,-17 -205,-21 -3,-5 -3,-34 -2,-65 l 4,-57 151,3 152,4 8,-84 c 4,-47 4,-88 0,-92 -5,-4 -77,-11 -160,-15 l -153,-7 v -70 -70 l 183,6 c 100,4 199,10 219,13 43,7 43,7 53,-117 l 6,-76 -73,-6 c -40,-4 -193,-10 -340,-13 l -267,-7 -5,24 c -2,13 -4,204 -3,424 l 2,400 160,7 c 88,4 205,12 260,16 55,5 121,10 147,11 l 47,1 z M 5151,2425 c 74,-14 150,-30 169,-35 87,-23 383,-71 560,-92 177,-21 238,-23 660,-23 422,1 482,3 650,23 224,28 445,63 644,102 166,33 210,37 161,15 -164,-75 -467,-148 -790,-190 -171,-23 -251,-27 -550,-32 -578,-9 -906,23 -1300,127 -169,45 -395,127 -354,129 9,1 77,-10 150,-24 z"
         id="path20"
         style="fill:#000000;fill-opacity:1" />
      <path
         d="m 5080,9050 c 0,-5 4,-10 9,-10 6,0 13,5 16,10 3,6 -1,10 -9,10 -9,0 -16,-4 -16,-10 z"
         id="path22"
         style="fill:#000000;fill-opacity:1" />
      <path
         d="m 5120,9010 c 0,-5 5,-10 10,-10 6,0 10,5 10,10 0,6 -4,10 -10,10 -5,0 -10,-4 -10,-10 z"
         id="path24"
         style="fill:#000000;fill-opacity:1" />
      <path
         d="m 5170,8955 c -7,-9 -11,-18 -8,-20 6,-6 58,18 58,28 0,13 -37,7 -50,-8 z"
         id="path26"
         style="fill:#000000;fill-opacity:1" />
      <path
         d="m 4875,8910 c -3,-5 -1,-10 4,-10 6,0 11,5 11,10 0,6 -2,10 -4,10 -3,0 -8,-4 -11,-10 z"
         id="path28"
         style="fill:#000000;fill-opacity:1" />
      <path
         d="m 4560,8309 c 0,-5 5,-7 10,-4 6,3 10,8 10,11 0,2 -4,4 -10,4 -5,0 -10,-5 -10,-11 z"
         id="path30"
         style="fill:#000000;fill-opacity:1" />
      <path
         d="m 4625,7879 c -5,-29 -13,-43 -26,-46 -23,-6 -24,-28 -4,-123 45,-216 183,-360 419,-439 131,-43 158,-40 60,8 -222,110 -348,255 -403,466 -12,43 -21,100 -21,127 0,59 -16,63 -25,7 z"
         id="path32"
         style="fill:#000000;fill-opacity:1" />
      <path
         d="m 4750,6786 c 0,-19 26,-40 35,-26 3,5 1,10 -4,10 -6,0 -11,7 -11,15 0,8 -4,15 -10,15 -5,0 -10,-6 -10,-14 z"
         id="path34"
         style="fill:#000000;fill-opacity:1" />
      <path
         d="m 4800,6710 c 0,-5 5,-10 10,-10 6,0 10,5 10,10 0,6 -4,10 -10,10 -5,0 -10,-4 -10,-10 z"
         id="path36"
         style="fill:#000000;fill-opacity:1" />
      <path
         d="m 4920,6660 c 0,-5 5,-10 11,-10 5,0 7,5 4,10 -3,6 -8,10 -11,10 -2,0 -4,-4 -4,-10 z"
         id="path38"
         style="fill:#000000;fill-opacity:1" />
      <path
         d="m 4965,6620 c 3,-5 11,-10 16,-10 6,0 7,5 4,10 -3,6 -11,10 -16,10 -6,0 -7,-4 -4,-10 z"
         id="path40"
         style="fill:#000000;fill-opacity:1" />
      <path
         d="m 5027,6603 c -4,-3 -7,-11 -7,-17 0,-6 5,-5 12,2 6,6 9,14 7,17 -3,3 -9,2 -12,-2 z"
         id="path42"
         style="fill:#000000;fill-opacity:1" />
      <path
         d="m 5048,6533 c 7,-3 16,-2 19,1 4,3 -2,6 -13,5 -11,0 -14,-3 -6,-6 z"
         id="path44"
         style="fill:#000000;fill-opacity:1" />
      <path
         d="m 5131,6494 c 0,-11 3,-14 6,-6 3,7 2,16 -1,19 -3,4 -6,-2 -5,-13 z"
         id="path46"
         style="fill:#000000;fill-opacity:1" />
      <path
         d="m 5075,6479 c -10,-15 3,-25 16,-12 7,7 7,13 1,17 -6,3 -14,1 -17,-5 z"
         id="path48"
         style="fill:#000000;fill-opacity:1" />
      <path
         d="m 8890,6470 c 0,-5 5,-10 11,-10 5,0 7,5 4,10 -3,6 -8,10 -11,10 -2,0 -4,-4 -4,-10 z"
         id="path50"
         style="fill:#000000;fill-opacity:1" />
      <path
         d="m 9025,6460 c 4,-6 11,-8 16,-5 14,9 11,15 -7,15 -8,0 -12,-5 -9,-10 z"
         id="path52"
         style="fill:#000000;fill-opacity:1" />
      <path
         d="m 5060,6420 c 0,-5 4,-10 9,-10 6,0 13,5 16,10 3,6 -1,10 -9,10 -9,0 -16,-4 -16,-10 z"
         id="path54"
         style="fill:#000000;fill-opacity:1" />
      <path
         d="m 8740,6415 c -7,-9 -10,-18 -7,-21 3,-3 10,4 17,15 13,25 8,27 -10,6 z"
         id="path56"
         style="fill:#000000;fill-opacity:1" />
      <path
         d="m 8855,6410 c -16,-18 -16,-20 -2,-20 10,0 17,4 17,9 0,5 15,5 35,1 35,-8 52,1 40,20 -5,8 -11,7 -21,-1 -11,-9 -18,-9 -26,-1 -16,16 -22,15 -43,-8 z"
         id="path58"
         style="fill:#000000;fill-opacity:1" />
      <path
         d="m 5116,6404 c -11,-8 -16,-14 -10,-14 13,0 39,18 34,24 -3,2 -14,-2 -24,-10 z"
         id="path60"
         style="fill:#000000;fill-opacity:1" />
      <path
         d="m 8470,6411 c 0,-6 4,-12 8,-15 5,-3 9,1 9,9 0,8 -4,15 -9,15 -4,0 -8,-4 -8,-9 z"
         id="path62"
         style="fill:#000000;fill-opacity:1" />
      <path
         d="m 9141,6413 c -1,-7 -9,-13 -18,-13 -16,0 -16,-1 0,-17 21,-21 38,-7 27,22 -5,11 -9,14 -9,8 z"
         id="path64"
         style="fill:#000000;fill-opacity:1" />
      <path
         d="m 5515,6399 c -4,-6 -5,-12 -2,-15 2,-3 7,2 10,11 7,17 1,20 -8,4 z"
         id="path66"
         style="fill:#000000;fill-opacity:1" />
      <path
         d="m 8650,6400 c 0,-5 7,-7 15,-4 8,4 15,8 15,10 0,2 -7,4 -15,4 -8,0 -15,-4 -15,-10 z"
         id="path68"
         style="fill:#000000;fill-opacity:1" />
      <path
         d="m 9025,6400 c 3,-5 13,-10 21,-10 8,0 12,5 9,10 -3,6 -13,10 -21,10 -8,0 -12,-4 -9,-10 z"
         id="path70"
         style="fill:#000000;fill-opacity:1" />
      <path
         d="m 5162,6391 c -10,-6 -9,-10 7,-14 14,-3 21,0 21,9 0,16 -9,18 -28,5 z"
         id="path72"
         style="fill:#000000;fill-opacity:1" />
      <path
         d="m 8507,6394 c -13,-13 -7,-24 14,-24 11,0 19,5 17,12 -5,14 -22,21 -31,12 z"
         id="path74"
         style="fill:#000000;fill-opacity:1" />
      <path
         d="m 8571,6384 c 0,-11 3,-14 6,-6 3,7 2,16 -1,19 -3,4 -6,-2 -5,-13 z"
         id="path76"
         style="fill:#000000;fill-opacity:1" />
      <path
         d="m 8796,6387 c 3,-10 9,-15 12,-12 3,3 0,11 -7,18 -10,9 -11,8 -5,-6 z"
         id="path78"
         style="fill:#000000;fill-opacity:1" />
      <path
         d="m 8976,6375 c 6,-24 4,-26 -22,-20 l -29,6 24,-20 c 25,-22 47,-28 35,-10 -3,6 -2,14 4,18 13,8 4,51 -9,51 -5,0 -7,-11 -3,-25 z"
         id="path80"
         style="fill:#000000;fill-opacity:1" />
      <path
         d="m 8900,6380 c 0,-5 -9,-10 -20,-10 -27,0 -24,-11 10,-38 l 29,-22 -8,27 c -4,16 -6,34 -4,41 3,6 2,12 -1,12 -3,0 -6,-4 -6,-10 z"
         id="path82"
         style="fill:#000000;fill-opacity:1" />
      <path
         d="m 8420,6371 c 0,-5 7,-12 16,-15 22,-9 24,-8 18,9 -7,16 -34,21 -34,6 z"
         id="path84"
         style="fill:#000000;fill-opacity:1" />
      <path
         d="m 5200,6361 c 0,-10 30,-24 37,-17 3,3 2,9 -2,15 -8,13 -35,15 -35,2 z"
         id="path86"
         style="fill:#000000;fill-opacity:1" />
      <path
         d="m 8085,6360 c -3,-5 1,-10 10,-10 9,0 13,5 10,10 -3,6 -8,10 -10,10 -2,0 -7,-4 -10,-10 z"
         id="path88"
         style="fill:#000000;fill-opacity:1" />
      <path
         d="m 8652,6363 c 23,-6 31,-32 11,-40 -9,-4 -21,1 -29,12 -12,16 -14,17 -20,2 -8,-21 -44,-22 -44,-2 0,8 -4,15 -9,15 -19,0 -22,-20 -7,-42 10,-16 12,-28 6,-38 -8,-12 -10,-10 -10,8 0,13 -6,22 -15,22 -8,0 -15,5 -15,10 0,6 -9,10 -20,10 -19,0 -24,-10 -21,-37 3,-25 -27,-12 -34,14 -5,20 -9,23 -15,14 -4,-8 -15,-11 -24,-8 -10,4 -16,1 -16,-8 0,-8 -9,-15 -19,-15 -25,0 -36,16 -16,24 8,3 15,10 15,16 0,6 -11,3 -24,-7 -24,-18 -40,-69 -24,-79 5,-3 6,-10 2,-15 -6,-11 23,-49 38,-49 4,0 8,7 8,16 0,8 5,12 11,8 6,-3 22,-1 35,7 19,10 27,10 36,1 7,-7 20,-12 30,-12 10,0 18,-4 18,-10 0,-5 4,-10 10,-10 15,0 0,28 -18,34 -10,2 1,2 23,0 22,-3 35,-2 29,3 -6,4 -17,23 -25,41 -8,17 -17,32 -21,32 -5,0 -8,5 -8,11 0,8 5,8 15,-1 8,-7 15,-18 15,-24 0,-23 22,-37 38,-24 11,10 18,7 33,-12 10,-14 19,-20 19,-13 0,6 -4,15 -10,18 -5,3 -10,15 -10,26 0,10 5,19 10,19 6,0 10,-4 10,-10 0,-21 20,-9 21,13 0,12 3,16 6,9 4,-10 8,-10 19,-1 11,9 15,8 20,-5 8,-20 24,-21 24,-1 0,9 6,12 15,9 22,-9 18,3 -12,42 -17,20 -36,34 -48,33 -16,-1 -16,-2 -3,-6 z m -222,-94 c 0,-5 -4,-9 -10,-9 -5,0 -10,7 -10,16 0,8 5,12 10,9 6,-3 10,-10 10,-16 z m -66,-25 c 4,-10 1,-14 -6,-12 -15,5 -23,28 -10,28 5,0 13,-7 16,-16 z m 104,-12 c 2,-7 -3,-12 -12,-12 -9,0 -16,7 -16,16 0,17 22,14 28,-4 z m -58,-2 c 0,-5 -4,-10 -10,-10 -5,0 -10,5 -10,10 0,6 5,10 10,10 6,0 10,-4 10,-10 z"
         id="path90"
         style="fill:#000000;fill-opacity:1" />
      <path
         d="m 8720,6358 c 0,-7 4,-19 9,-27 11,-17 25,3 17,24 -7,18 -26,20 -26,3 z"
         id="path92"
         style="fill:#000000;fill-opacity:1" />
      <path
         d="m 8776,6355 c 4,-8 10,-15 15,-15 5,0 9,-5 9,-10 0,-6 11,-23 25,-38 l 25,-27 -2,41 c -1,33 -4,40 -18,37 -9,-3 -24,3 -33,11 -20,20 -28,20 -21,1 z"
         id="path94"
         style="fill:#000000;fill-opacity:1" />
      <path
         d="m 5140,6350 c 0,-5 5,-10 10,-10 6,0 10,5 10,10 0,6 -4,10 -10,10 -5,0 -10,-4 -10,-10 z"
         id="path96"
         style="fill:#000000;fill-opacity:1" />
      <path
         d="m 5385,6350 c -3,-5 -1,-10 4,-10 6,0 11,5 11,10 0,6 -2,10 -4,10 -3,0 -8,-4 -11,-10 z"
         id="path98"
         style="fill:#000000;fill-opacity:1" />
      <path
         d="m 5470,6350 c 0,-5 5,-10 11,-10 5,0 7,5 4,10 -3,6 -8,10 -11,10 -2,0 -4,-4 -4,-10 z"
         id="path100"
         style="fill:#000000;fill-opacity:1" />
      <path
         d="m 7947,6339 c -10,-11 -16,-24 -12,-27 8,-9 38,24 34,37 -3,7 -12,3 -22,-10 z"
         id="path102"
         style="fill:#000000;fill-opacity:1" />
      <path
         d="m 8390,6340 c 0,-5 5,-10 11,-10 5,0 7,5 4,10 -3,6 -8,10 -11,10 -2,0 -4,-4 -4,-10 z"
         id="path104"
         style="fill:#000000;fill-opacity:1" />
      <path
         d="m 5260,6322 c 0,-12 4,-22 8,-22 4,0 8,-9 9,-20 1,-14 -4,-20 -18,-20 -10,0 -19,-4 -19,-8 0,-4 17,-8 38,-7 29,0 40,5 50,24 14,27 6,45 -9,18 -13,-23 -33,-22 -26,2 3,12 -3,27 -14,37 -18,16 -19,16 -19,-4 z"
         id="path106"
         style="fill:#000000;fill-opacity:1" />
      <path
         d="m 5595,6329 c -4,-6 -5,-12 -2,-15 2,-3 7,2 10,11 7,17 1,20 -8,4 z"
         id="path108"
         style="fill:#000000;fill-opacity:1" />
      <path
         d="m 5215,6320 c -3,-5 -1,-10 4,-10 6,0 11,5 11,10 0,6 -2,10 -4,10 -3,0 -8,-4 -11,-10 z"
         id="path110"
         style="fill:#000000;fill-opacity:1" />
      <path
         d="m 8035,6320 c -3,-5 -1,-10 4,-10 6,0 11,5 11,10 0,6 -2,10 -4,10 -3,0 -8,-4 -11,-10 z"
         id="path112"
         style="fill:#000000;fill-opacity:1" />
      <path
         d="m 8152,6310 c -14,-23 -15,-30 -4,-30 5,0 14,11 20,25 14,30 2,34 -16,5 z"
         id="path114"
         style="fill:#000000;fill-opacity:1" />
      <path
         d="m 8767,6317 c -3,-8 5,-23 19,-36 29,-25 32,-7 5,28 -14,19 -19,20 -24,8 z"
         id="path116"
         style="fill:#000000;fill-opacity:1" />
      <path
         d="m 7982,6305 c -11,-12 -10,-15 3,-15 8,0 15,7 15,15 0,18 -2,18 -18,0 z"
         id="path118"
         style="fill:#000000;fill-opacity:1" />
      <path
         d="m 8196,6305 c -3,-8 -1,-15 4,-15 6,0 10,7 10,15 0,8 -2,15 -4,15 -2,0 -6,-7 -10,-15 z"
         id="path120"
         style="fill:#000000;fill-opacity:1" />
      <path
         d="m 5385,6290 c -3,-5 -1,-10 4,-10 6,0 11,5 11,10 0,6 -2,10 -4,10 -3,0 -8,-4 -11,-10 z"
         id="path122"
         style="fill:#000000;fill-opacity:1" />
      <path
         d="m 8094,6285 c 11,-8 16,-15 11,-15 -5,0 -4,-5 3,-12 7,-7 12,-25 12,-40 0,-15 5,-28 10,-28 6,0 10,6 10,13 0,9 2,9 8,0 12,-19 36,2 29,26 -4,16 -1,21 14,21 10,0 19,6 19,13 0,19 -40,14 -52,-6 -13,-25 -25,-21 -37,13 -6,19 -17,30 -28,30 -17,-1 -17,-2 1,-15 z"
         id="path124"
         style="fill:#000000;fill-opacity:1" />
      <path
         d="m 5435,6271 c -3,-6 1,-14 9,-17 9,-3 13,-10 10,-15 -3,-5 0,-9 5,-9 15,0 13,11 -3,33 -9,12 -16,14 -21,8 z"
         id="path126"
         style="fill:#000000;fill-opacity:1" />
      <path
         d="m 5590,6270 c 0,-5 5,-10 11,-10 5,0 7,5 4,10 -3,6 -8,10 -11,10 -2,0 -4,-4 -4,-10 z"
         id="path128"
         style="fill:#000000;fill-opacity:1" />
      <path
         d="m 8755,6270 c 3,-5 8,-10 11,-10 2,0 4,5 4,10 0,6 -5,10 -11,10 -5,0 -7,-4 -4,-10 z"
         id="path130"
         style="fill:#000000;fill-opacity:1" />
      <path
         d="m 7580,6260 c 0,-5 5,-10 11,-10 5,0 7,5 4,10 -3,6 -8,10 -11,10 -2,0 -4,-4 -4,-10 z"
         id="path132"
         style="fill:#000000;fill-opacity:1" />
      <path
         d="m 8660,6262 c 0,-4 7,-16 15,-26 15,-19 15,-19 15,1 0,11 -7,23 -15,27 -8,3 -15,2 -15,-2 z"
         id="path134"
         style="fill:#000000;fill-opacity:1" />
      <path
         d="m 5351,6251 c -7,-5 -11,-15 -9,-22 3,-10 8,-7 17,9 13,24 12,26 -8,13 z"
         id="path136"
         style="fill:#000000;fill-opacity:1" />
      <path
         d="m 5488,6243 c 7,-3 16,-2 19,1 4,3 -2,6 -13,5 -11,0 -14,-3 -6,-6 z"
         id="path138"
         style="fill:#000000;fill-opacity:1" />
      <path
         d="m 5527,6229 c 4,-13 8,-18 11,-10 2,7 -1,18 -6,23 -8,8 -9,4 -5,-13 z"
         id="path140"
         style="fill:#000000;fill-opacity:1" />
      <path
         d="m 7750,6240 c 0,-5 5,-10 10,-10 6,0 10,5 10,10 0,6 -4,10 -10,10 -5,0 -10,-4 -10,-10 z"
         id="path142"
         style="fill:#000000;fill-opacity:1" />
      <path
         d="m 7936,6234 c -10,-25 1,-29 14,-5 6,12 7,21 1,21 -5,0 -12,-7 -15,-16 z"
         id="path144"
         style="fill:#000000;fill-opacity:1" />
      <path
         d="m 8628,6243 c 7,-3 16,-2 19,1 4,3 -2,6 -13,5 -11,0 -14,-3 -6,-6 z"
         id="path146"
         style="fill:#000000;fill-opacity:1" />
      <path
         d="m 5384,6226 c -10,-8 -15,-18 -11,-22 4,-4 15,0 24,9 22,21 12,31 -13,13 z"
         id="path148"
         style="fill:#000000;fill-opacity:1" />
      <path
         d="m 7550,6230 c 0,-5 5,-10 11,-10 5,0 7,5 4,10 -3,6 -8,10 -11,10 -2,0 -4,-4 -4,-10 z"
         id="path150"
         style="fill:#000000;fill-opacity:1" />
      <path
         d="m 7720,6229 c 0,-5 5,-7 10,-4 6,3 10,8 10,11 0,2 -4,4 -10,4 -5,0 -10,-5 -10,-11 z"
         id="path152"
         style="fill:#000000;fill-opacity:1" />
      <path
         d="m 7600,6210 c 0,-5 5,-10 11,-10 5,0 7,5 4,10 -3,6 -8,10 -11,10 -2,0 -4,-4 -4,-10 z"
         id="path154"
         style="fill:#000000;fill-opacity:1" />
      <path
         d="m 5417,6196 c -16,-12 -16,-14 -2,-20 17,-6 49,17 38,28 -9,9 -16,7 -36,-8 z"
         id="path156"
         style="fill:#000000;fill-opacity:1" />
      <path
         d="m 7650,6200 c 0,-5 5,-10 11,-10 5,0 7,5 4,10 -3,6 -8,10 -11,10 -2,0 -4,-4 -4,-10 z"
         id="path158"
         style="fill:#000000;fill-opacity:1" />
      <path
         d="m 7460,6191 c 0,-6 5,-13 10,-16 6,-3 10,1 10,9 0,9 -4,16 -10,16 -5,0 -10,-4 -10,-9 z"
         id="path160"
         style="fill:#000000;fill-opacity:1" />
      <path
         d="m 7515,6190 c 3,-5 8,-10 11,-10 2,0 4,5 4,10 0,6 -5,10 -11,10 -5,0 -7,-4 -4,-10 z"
         id="path162"
         style="fill:#000000;fill-opacity:1" />
      <path
         d="m 5466,6168 c -16,-19 -17,-20 -1,-15 9,4 23,7 31,7 8,0 11,6 8,15 -8,20 -16,19 -38,-7 z"
         id="path164"
         style="fill:#000000;fill-opacity:1" />
      <path
         d="m 5550,6179 c 0,-5 5,-7 10,-4 6,3 10,8 10,11 0,2 -4,4 -10,4 -5,0 -10,-5 -10,-11 z"
         id="path166"
         style="fill:#000000;fill-opacity:1" />
      <path
         d="m 7550,6180 c 0,-5 5,-10 11,-10 5,0 7,5 4,10 -3,6 -8,10 -11,10 -2,0 -4,-4 -4,-10 z"
         id="path168"
         style="fill:#000000;fill-opacity:1" />
      <path
         d="m 8435,6180 c 3,-5 8,-10 11,-10 2,0 4,5 4,10 0,6 -5,10 -11,10 -5,0 -7,-4 -4,-10 z"
         id="path170"
         style="fill:#000000;fill-opacity:1" />
      <path
         d="m 8386,6145 c 4,-8 10,-15 15,-15 4,0 6,7 3,15 -4,8 -10,15 -15,15 -4,0 -6,-7 -3,-15 z"
         id="path172"
         style="fill:#000000;fill-opacity:1" />
      <path
         d="m 5410,6139 c 0,-5 5,-7 10,-4 6,3 10,8 10,11 0,2 -4,4 -10,4 -5,0 -10,-5 -10,-11 z"
         id="path174"
         style="fill:#000000;fill-opacity:1" />
      <path
         d="m 5540,6140 c 0,-5 7,-10 16,-10 8,0 12,5 9,10 -3,6 -10,10 -16,10 -5,0 -9,-4 -9,-10 z"
         id="path176"
         style="fill:#000000;fill-opacity:1" />
      <path
         d="m 5600,6135 c -7,-8 -8,-15 -2,-15 5,0 15,7 22,15 7,8 8,15 2,15 -5,0 -15,-7 -22,-15 z"
         id="path178"
         style="fill:#000000;fill-opacity:1" />
      <path
         d="m 7370,6135 c -7,-9 -11,-17 -9,-20 3,-2 10,5 17,15 14,24 10,26 -8,5 z"
         id="path180"
         style="fill:#000000;fill-opacity:1" />
      <path
         d="m 7531,6134 c 0,-11 3,-14 6,-6 3,7 2,16 -1,19 -3,4 -6,-2 -5,-13 z"
         id="path182"
         style="fill:#000000;fill-opacity:1" />
      <path
         d="m 5466,6125 c -10,-7 -15,-19 -11,-25 5,-8 12,-7 24,4 20,18 36,10 20,-10 -6,-7 -7,-19 -3,-25 5,-9 11,-7 20,6 10,13 17,15 26,8 7,-6 23,-13 36,-16 17,-4 22,-1 22,14 0,10 -7,19 -15,19 -8,0 -24,5 -35,10 -11,6 -29,15 -40,20 -24,12 -21,12 -44,-5 z"
         id="path184"
         style="fill:#000000;fill-opacity:1" />
      <path
         d="m 5644,6118 c -19,-22 -22,-68 -4,-68 5,0 11,-8 14,-17 3,-10 3,4 0,30 -3,30 -1,54 7,63 19,23 4,16 -17,-8 z"
         id="path186"
         style="fill:#000000;fill-opacity:1" />
      <path
         d="m 6580,6104 c 0,-8 5,-12 10,-9 6,4 8,11 5,16 -9,14 -15,11 -15,-7 z"
         id="path188"
         style="fill:#000000;fill-opacity:1" />
      <path
         d="m 7140,6110 c 0,-5 5,-10 10,-10 6,0 10,5 10,10 0,6 -4,10 -10,10 -5,0 -10,-4 -10,-10 z"
         id="path190"
         style="fill:#000000;fill-opacity:1" />
      <path
         d="m 7275,6111 c -6,-11 9,-23 19,-14 9,9 7,23 -3,23 -6,0 -12,-4 -16,-9 z"
         id="path192"
         style="fill:#000000;fill-opacity:1" />
      <path
         d="m 6081,6074 c 0,-11 3,-14 6,-6 3,7 2,16 -1,19 -3,4 -6,-2 -5,-13 z"
         id="path194"
         style="fill:#000000;fill-opacity:1" />
      <path
         d="m 6530,6059 c 0,-5 5,-7 10,-4 6,3 10,8 10,11 0,2 -4,4 -10,4 -5,0 -10,-5 -10,-11 z"
         id="path196"
         style="fill:#000000;fill-opacity:1" />
      <path
         d="m 7200,6060 c 0,-5 5,-10 10,-10 6,0 10,5 10,10 0,6 -4,10 -10,10 -5,0 -10,-4 -10,-10 z"
         id="path198"
         style="fill:#000000;fill-opacity:1" />
      <path
         d="m 5697,6053 c -4,-3 -7,-12 -7,-20 0,-11 4,-11 20,-1 11,7 20,16 20,20 0,10 -24,10 -33,1 z"
         id="path200"
         style="fill:#000000;fill-opacity:1" />
      <path
         d="m 7265,6050 c -3,-5 -1,-10 4,-10 6,0 11,5 11,10 0,6 -2,10 -4,10 -3,0 -8,-4 -11,-10 z"
         id="path202"
         style="fill:#000000;fill-opacity:1" />
      <path
         d="m 8091,6044 c 0,-11 3,-14 6,-6 3,7 2,16 -1,19 -3,4 -6,-2 -5,-13 z"
         id="path204"
         style="fill:#000000;fill-opacity:1" />
      <path
         d="m 6350,6040 c 0,-5 5,-10 10,-10 6,0 10,5 10,10 0,6 -4,10 -10,10 -5,0 -10,-4 -10,-10 z"
         id="path206"
         style="fill:#000000;fill-opacity:1" />
      <path
         d="m 6145,6020 c -17,-19 -17,-20 2,-20 12,0 23,7 26,15 9,23 -9,26 -28,5 z"
         id="path208"
         style="fill:#000000;fill-opacity:1" />
      <path
         d="m 7200,6025 c 0,-8 7,-15 15,-15 8,0 17,0 20,0 14,0 4,15 -14,22 -15,5 -21,3 -21,-7 z"
         id="path210"
         style="fill:#000000;fill-opacity:1" />
      <path
         d="m 6306,6005 c -3,-9 0,-15 9,-15 8,0 15,7 15,15 0,8 -4,15 -9,15 -5,0 -11,-7 -15,-15 z"
         id="path212"
         style="fill:#000000;fill-opacity:1" />
      <path
         d="m 6736,6005 c -3,-8 -1,-15 4,-15 13,0 22,18 11,24 -5,3 -11,-1 -15,-9 z"
         id="path214"
         style="fill:#000000;fill-opacity:1" />
      <path
         d="m 7140,6010 c 0,-5 5,-10 10,-10 6,0 10,5 10,10 0,6 -4,10 -10,10 -5,0 -10,-4 -10,-10 z"
         id="path216"
         style="fill:#000000;fill-opacity:1" />
      <path
         d="m 6410,5995 c 0,-8 4,-15 9,-15 5,0 11,7 15,15 3,9 0,15 -9,15 -8,0 -15,-7 -15,-15 z"
         id="path218"
         style="fill:#000000;fill-opacity:1" />
      <path
         d="m 6930,5984 c 0,-23 2,-24 15,-10 8,8 15,17 15,19 0,3 -7,7 -15,11 -11,4 -15,-2 -15,-20 z"
         id="path220"
         style="fill:#000000;fill-opacity:1" />
      <path
         d="m 5660,5990 c 0,-5 4,-10 9,-10 6,0 13,5 16,10 3,6 -1,10 -9,10 -9,0 -16,-4 -16,-10 z"
         id="path222"
         style="fill:#000000;fill-opacity:1" />
      <path
         d="m 5790,5985 c -7,-9 -10,-19 -6,-22 4,-4 11,-2 15,5 4,7 15,10 24,6 12,-4 17,-1 17,10 0,20 -33,21 -50,1 z"
         id="path224"
         style="fill:#000000;fill-opacity:1" />
      <path
         d="m 6200,5996 c 0,-9 30,-14 35,-6 4,6 -3,10 -14,10 -12,0 -21,-2 -21,-4 z"
         id="path226"
         style="fill:#000000;fill-opacity:1" />
      <path
         d="m 6466,5984 c -4,-11 -1,-14 11,-12 9,2 18,9 21,16 6,18 -25,15 -32,-4 z"
         id="path228"
         style="fill:#000000;fill-opacity:1" />
      <path
         d="m 6540,5994 c 0,-4 8,-12 17,-19 14,-10 15,-16 5,-27 -16,-20 -3,-31 15,-13 12,13 12,18 -4,40 -17,23 -33,32 -33,19 z"
         id="path230"
         style="fill:#000000;fill-opacity:1" />
      <path
         d="m 6606,5986 c 3,-9 11,-16 16,-16 13,0 5,23 -10,28 -7,2 -10,-2 -6,-12 z"
         id="path232"
         style="fill:#000000;fill-opacity:1" />
      <path
         d="m 6812,5986 c 7,-8 15,-12 17,-11 5,6 -10,25 -20,25 -5,0 -4,-6 3,-14 z"
         id="path234"
         style="fill:#000000;fill-opacity:1" />
      <path
         d="m 6686,5981 c -3,-5 1,-11 9,-15 8,-3 15,-1 15,4 0,13 -18,22 -24,11 z"
         id="path236"
         style="fill:#000000;fill-opacity:1" />
      <path
         d="m 7140,5979 c 0,-5 5,-7 10,-4 6,3 10,8 10,11 0,2 -4,4 -10,4 -5,0 -10,-5 -10,-11 z"
         id="path238"
         style="fill:#000000;fill-opacity:1" />
      <path
         d="m 6505,5959 c -4,-6 -5,-13 -2,-16 7,-7 27,6 27,18 0,12 -17,12 -25,-2 z"
         id="path240"
         style="fill:#000000;fill-opacity:1" />
      <path
         d="m 5755,5939 c -4,-5 8,-10 24,-10 17,-1 36,-2 43,-3 6,-1 13,4 15,9 4,13 -75,17 -82,4 z"
         id="path242"
         style="fill:#000000;fill-opacity:1" />
      <path
         d="m 8140,4270 c 0,-5 5,-10 11,-10 5,0 7,5 4,10 -3,6 -8,10 -11,10 -2,0 -4,-4 -4,-10 z"
         id="path244"
         style="fill:#000000;fill-opacity:1" />
      <path
         d="m 7345,4320 c -3,-5 -1,-10 4,-10 6,0 11,5 11,10 0,6 -2,10 -4,10 -3,0 -8,-4 -11,-10 z"
         id="path246"
         style="fill:#000000;fill-opacity:1" />
      <path
         d="m 7420,4294 c 0,-8 5,-12 10,-9 6,3 10,10 10,16 0,5 -4,9 -10,9 -5,0 -10,-7 -10,-16 z"
         id="path248"
         style="fill:#000000;fill-opacity:1" />
      <path
         d="m 8773,9466 c -41,-19 -55,-47 -55,-109 1,-43 7,-60 41,-110 50,-71 52,-87 11,-87 -40,0 -76,39 -85,91 -7,43 -25,57 -76,61 -29,3 -33,0 -41,-30 -19,-70 37,-165 130,-219 37,-22 60,-28 105,-28 54,0 61,3 89,34 27,30 30,39 26,86 -3,41 -13,64 -46,110 -45,62 -55,105 -24,105 30,0 58,-27 70,-68 9,-30 21,-44 48,-57 51,-24 64,-15 64,42 -1,127 -146,229 -257,179 z"
         id="path250"
         style="fill:#000000;fill-opacity:1" />
      <path
         d="m 9102,9008 c -84,-77 -152,-145 -152,-151 1,-12 66,-87 76,-87 3,0 27,18 53,40 44,38 71,50 71,33 0,-5 -7,-48 -16,-96 l -16,-88 44,-47 c 25,-26 47,-54 50,-62 12,-34 27,11 43,130 9,69 20,128 23,131 4,4 60,2 125,-4 64,-5 120,-7 123,-4 9,8 -54,105 -75,116 -9,5 -49,12 -89,16 -41,4 -86,10 -100,14 l -27,7 30,30 c 17,17 41,37 53,46 l 24,16 -34,46 c -18,25 -38,47 -44,49 -5,3 -78,-58 -162,-135 z"
         id="path252"
         style="fill:#000000;fill-opacity:1" />
      <path
         d="m 9605,8638 c -16,-12 -89,-66 -162,-120 l -132,-98 31,-50 c 17,-27 34,-50 37,-49 3,0 47,29 96,64 50,35 122,86 162,112 39,26 72,53 72,58 1,14 -57,105 -67,105 -4,0 -20,-10 -37,-22 z"
         id="path254"
         style="fill:#000000;fill-opacity:1" />
      <path
         d="m 9742,8423 c -11,-15 -34,-56 -51,-89 -17,-34 -37,-66 -44,-71 -6,-6 -40,-18 -75,-27 -34,-9 -78,-24 -97,-32 l -35,-14 30,-60 c 17,-33 33,-60 37,-60 3,0 29,15 57,33 57,36 78,38 276,20 58,-5 107,-8 109,-7 2,2 -7,28 -19,58 -25,59 -36,66 -107,66 -52,0 -54,12 -9,54 l 35,31 -32,59 c -18,33 -37,61 -43,63 -7,2 -21,-9 -32,-24 z"
         id="path256"
         style="fill:#000000;fill-opacity:1" />
      <path
         d="m 3096,7915 c -15,-8 -41,-15 -56,-15 -29,0 -121,-56 -128,-77 -3,-9 11,-13 45,-13 26,0 61,-7 77,-15 46,-24 68,-18 116,33 25,26 54,52 65,58 19,11 19,11 0,22 -39,20 -89,23 -119,7 z"
         id="path258"
         style="fill:#000000;fill-opacity:1" />
      <path
         d="m 9753,7790 c -18,-11 -33,-22 -33,-25 0,-3 13,-11 29,-16 17,-6 42,-26 56,-45 30,-39 42,-41 87,-14 18,11 50,20 70,20 20,0 39,4 42,9 14,21 -140,91 -201,91 -10,0 -33,-9 -50,-20 z"
         id="path260"
         style="fill:#000000;fill-opacity:1" />
      <path
         d="m 2319,7678 c -33,-109 -62,-224 -74,-297 -7,-40 -6,-43 11,-37 39,15 181,54 221,61 l 42,7 25,106 c 14,59 32,124 40,144 15,35 15,38 -2,47 -17,9 -214,71 -225,71 -3,0 -20,-46 -38,-102 z"
         id="path262"
         style="fill:#000000;fill-opacity:1" />
      <path
         d="m 10596,7750 c -27,-11 -73,-25 -103,-31 -29,-7 -53,-17 -53,-23 0,-6 13,-57 29,-113 17,-56 33,-117 36,-136 7,-34 8,-35 79,-46 40,-7 94,-18 121,-26 76,-24 88,-21 80,18 -15,76 -68,280 -85,324 -21,56 -35,61 -104,33 z"
         id="path264"
         style="fill:#000000;fill-opacity:1" />
      <path
         d="m 2164,7089 c -9,-15 -31,-220 -43,-403 -38,-563 31,-1167 185,-1624 19,-57 34,-108 32,-114 -4,-12 -13,-13 -251,-16 l -158,-2 6,-22 c 12,-39 133,-288 171,-350 l 35,-58 h 1105 c 607,0 1104,3 1103,8 0,4 -8,38 -18,76 -13,48 -24,72 -37,77 -11,4 -450,8 -976,8 -936,1 -958,1 -968,20 -5,11 -10,31 -10,45 v 26 h 980 979 l 5,33 c 3,17 8,58 11,90 l 6,57 h -840 c -837,0 -840,0 -851,21 -9,16 -39,106 -40,117 0,1 398,2 884,2 h 884 l 41,49 c 23,27 41,54 41,60 0,9 -234,12 -941,10 -517,0 -942,1 -944,3 -4,4 -35,109 -35,120 0,4 610,8 1356,8 901,0 1353,3 1349,10 -8,13 21,13 46,-1 11,-5 30,-9 42,-7 18,2 12,9 -33,36 -30,18 -70,44 -89,57 l -34,25 H 3827 c -732,0 -1334,3 -1337,7 -10,11 -29,116 -23,125 2,5 583,8 1291,8 1153,1 1283,2 1252,16 -19,8 -57,32 -85,54 l -50,38 -1217,4 c -670,1 -1218,5 -1218,8 0,3 -5,33 -10,66 -12,75 -1,140 23,138 9,-1 17,4 17,11 0,11 182,14 981,15 568,0 986,-3 992,-8 7,-5 28,-12 47,-15 l 35,-6 -42,20 c -42,19 -71,20 -1052,20 -916,0 -1010,1 -1023,16 -18,22 -18,828 1,948 6,44 13,89 14,100 2,16 -9,22 -73,35 -41,9 -99,24 -127,33 -34,10 -55,12 -59,6 z"
         id="path266"
         style="fill:#000000;fill-opacity:1" />
      <path
         d="m 8135,5441 c -17,-4 -64,-27 -105,-51 -69,-40 -73,-45 -50,-51 22,-6 861,-13 860,-6 -1,1 -7,27 -14,57 l -13,55 -324,2 c -178,0 -338,-2 -354,-6 z"
         id="path268"
         style="fill:#000000;fill-opacity:1" />
      <path
         d="m 9636,5202 c -3,-5 9,-28 25,-53 31,-45 32,-25 2,34 -14,29 -19,32 -27,19 z"
         id="path270"
         style="fill:#000000;fill-opacity:1" />
      <path
         d="m 7982,5189 c -40,-5 -99,-19 -130,-33 -31,-13 -84,-36 -117,-50 l -60,-26 h 714 715 l -45,30 c -24,16 -62,43 -83,60 l -39,30 -441,-1 c -243,-1 -474,-5 -514,-10 z"
         id="path272"
         style="fill:#000000;fill-opacity:1" />
      <path
         d="m 4842,5177 c -9,-11 -42,-84 -42,-93 0,-2 29,-4 65,-4 36,0 65,2 65,5 0,3 -9,23 -20,45 -23,46 -53,66 -68,47 z"
         id="path274"
         style="fill:#000000;fill-opacity:1" />
      <path
         d="m 4733,4932 c -15,-9 -5,-54 11,-49 14,5 21,36 9,48 -4,4 -14,5 -20,1 z"
         id="path276"
         style="fill:#000000;fill-opacity:1" />
      <path
         d="m 4960,4931 c 0,-10 62,-41 81,-41 22,0 6,30 -18,36 -16,3 -36,8 -45,11 -10,2 -18,0 -18,-6 z"
         id="path278"
         style="fill:#000000;fill-opacity:1" />
      <path
         d="m 6170,4932 c 0,-4 4,-12 8,-17 5,-6 21,-41 37,-79 l 28,-68 195,5 c 107,3 197,8 200,11 5,6 0,9 -187,77 -183,68 -281,93 -281,71 z"
         id="path280"
         style="fill:#000000;fill-opacity:1" />
      <path
         d="m 7625,4929 c -33,-5 -87,-18 -120,-30 -59,-21 -151,-77 -142,-86 3,-2 45,8 93,23 79,25 104,28 224,28 126,0 141,-2 230,-33 52,-17 106,-40 120,-49 18,-11 42,-15 85,-13 33,1 61,4 64,6 2,2 -13,24 -33,48 -19,24 -42,60 -51,80 l -15,37 -198,-1 c -108,-1 -224,-5 -257,-10 z"
         id="path282"
         style="fill:#000000;fill-opacity:1" />
      <path
         d="m 8817,4934 c -6,-6 65,-64 78,-64 3,0 5,11 5,25 0,23 4,25 43,25 80,-1 199,-29 274,-64 l 75,-36 -6,25 c -3,13 -16,40 -27,60 l -21,35 h -207 c -114,0 -211,-3 -214,-6 z"
         id="path284"
         style="fill:#000000;fill-opacity:1" />
      <path
         d="m 8230,4671 c 0,-14 102,-70 117,-64 27,11 7,37 -42,54 -58,20 -75,23 -75,10 z"
         id="path286"
         style="fill:#000000;fill-opacity:1" />
      <path
         d="m 2193,4417 c -4,-6 46,-91 92,-154 l 16,-23 h 949 950 v 43 c 0,23 9,62 20,86 11,24 19,45 17,47 -7,7 -2039,8 -2044,1 z"
         id="path288"
         style="fill:#000000;fill-opacity:1" />
    </g>
  </g>
</svg>
